<?xml version="1.0" standalone="no"?>
<!DOCTYPE svg PUBLIC "-//W3C//DTD SVG 1.1//EN" "http://www.w3.org/Graphics/SVG/1.1/DTD/svg11.dtd" >
<svg xmlns="http://www.w3.org/2000/svg">
<metadata></metadata>
<defs>
<font id="gorilabold" horiz-adv-x="1453" >
<font-face units-per-em="2048" ascent="1638" descent="-410" />
<missing-glyph horiz-adv-x="508" />
<glyph horiz-adv-x="2048" />
<glyph horiz-adv-x="2048" />
<glyph unicode="&#xd;" horiz-adv-x="508" />
<glyph unicode=" "  horiz-adv-x="508" />
<glyph unicode="&#x09;" horiz-adv-x="508" />
<glyph unicode="&#xa0;" horiz-adv-x="508" />
<glyph unicode="!" horiz-adv-x="484" d="M60 1524h355l-30 -1118h-295zM90 -30v290h295v-290h-295z" />
<glyph unicode="&#x22;" horiz-adv-x="732" />
<glyph unicode="#" horiz-adv-x="1212" d="M88 366l47 296h117l18 111h-117l48 296h116l18 117h297l-19 -117h112l18 117h296l-18 -117h116l-47 -296h-117l-18 -111h117l-48 -296h-116l-19 -117h-296l19 117h-112l-18 -117h-296l18 117h-116zM548 662h111l18 111h-111z" />
<glyph unicode="$" horiz-adv-x="1451" d="M88 279v132h296v-116h6h669q7 0 7 6v58q0 19 -18 45q-17 26 -34 33l-693 292q-100 42 -166 142q-67 100 -67 208v52q0 125 89 214q88 88 213 88h187v197h296v-197h186q125 0 214 -82q88 -82 88 -198v-131h-295v115h-7h-669q-6 0 -6 -6v-52q0 -18 17 -44t35 -33l693 -292 q99 -42 166 -143q66 -100 66 -208v-58q0 -125 -88 -213q-89 -89 -214 -89h-186v-196h-296v196h-187q-125 0 -213 82q-89 82 -89 198z" />
<glyph unicode="%" horiz-adv-x="2122" d="M92 1000v132q0 125 89 214t214 89h279q126 0 214 -89q89 -89 89 -214v-132q0 -125 -89 -214q-88 -89 -214 -89h-279q-125 0 -214 89t-89 214zM389 1000q0 -6 6 -6h279q7 0 7 6v132q0 6 -7 6h-279q-6 0 -6 -6v-132zM416 0l1022 1435h297l-1022 -1435h-297zM1166 303v132 q0 125 89 214t215 89h278q126 0 215 -89t89 -214v-132q0 -125 -89 -214t-215 -89h-278q-126 0 -215 89t-89 214zM1463 303q0 -6 7 -6h278q7 0 7 6v132q0 6 -7 6h-278q-7 0 -7 -6v-132z" />
<glyph unicode="&#x26;" horiz-adv-x="1588" d="M88 474q0 196 264 359q-85 102 -85 213q0 160 103 274q104 113 251 113q146 0 250 -113q104 -114 104 -274q0 -121 -102 -231l139 -104l55 182l283 -85l-85 -284l235 -175l-176 -237l-171 126q-157 -238 -532 -238q-259 0 -405 149q-128 131 -128 325zM384 472 q1 -176 237 -176q227 0 295 119l-300 223q-211 -97 -232 -166zM562 1048q7 -23 59 -65q51 42 58 65q0 37 -19 64q-18 26 -39 26q-22 0 -39 -26q-19 -27 -20 -64z" />
<glyph unicode="'" horiz-adv-x="484" d="M90 1524h296v-483h-122z" />
<glyph unicode="(" horiz-adv-x="766" d="M91 716q0 445 215 833h350q-269 -373 -269 -833t269 -833h-350q-215 388 -215 833z" />
<glyph unicode=")" horiz-adv-x="790" d="M121 -117q269 373 269 833t-269 833h350q215 -388 215 -833t-215 -833h-350z" />
<glyph unicode="*" horiz-adv-x="1162" d="M88 1056l91 282l257 -83v269h296v-269l256 83l91 -282l-256 -83l158 -218l-239 -174l-158 218l-159 -218l-239 174l158 218z" />
<glyph unicode="+" horiz-adv-x="1211" d="M90 570v295h367v367h296v-367h367v-295h-367v-367h-296v367h-367z" />
<glyph unicode="," horiz-adv-x="473" d="M90 260h296v-483h-122z" />
<glyph unicode="-" horiz-adv-x="1211" d="M90 570v295h1030v-295h-1030z" />
<glyph unicode="." horiz-adv-x="491" d="M90 -30v290h295v-290h-295z" />
<glyph unicode="/" horiz-adv-x="1040" d="M1 -158l652 1592h296l-652 -1592h-296z" />
<glyph unicode="0" horiz-adv-x="1432" d="M83 302v831q0 125 89 213q88 89 213 89h670q125 0 213 -89q89 -88 89 -213v-831q0 -125 -89 -213q-88 -89 -213 -89h-670q-125 0 -213 89q-89 88 -89 213zM379 548l508 591h-502q-6 0 -6 -6v-585zM553 296h502q6 0 6 6v585z" />
<glyph unicode="1" horiz-adv-x="577" d="M87 1139v296h203q93 0 148 -82q55 -83 55 -220v-1133h-296v1139h-110z" />
<glyph unicode="2" horiz-adv-x="1365" d="M95 223q16 75 94 137l736 586q23 19 44 62t21 73v52q0 6 -6 6h-554q-3 0 -6 -1v-115h-296v132q0 116 89 198q88 82 213 82h554q125 0 213 -89q89 -88 89 -213v-52q0 -98 -50 -202q-50 -103 -127 -164l-525 -419h683v-296h-953q-168 0 -213 127q-16 47 -6 96z" />
<glyph unicode="3" horiz-adv-x="1325" d="M92 0v296h854q6 0 6 6v261q0 6 -6 6h-738v296h738q6 0 6 6v261q0 6 -6 6h-854v296h854q125 0 213 -89q89 -88 89 -213v-261q0 -83 -43 -154q43 -71 43 -154v-261q0 -125 -89 -213q-88 -89 -213 -89h-854z" />
<glyph unicode="4" horiz-adv-x="1317" d="M91 608v827h296v-524q0 -7 6 -7h554q6 0 6 7v524h296v-1435h-296v602q0 6 -6 6h-856z" />
<glyph unicode="5" horiz-adv-x="1439" d="M91 911v524h1184v-296h-882q-6 0 -6 -6v-222q0 -8 8 -18q9 -9 16 -10l672 -89q119 -15 200 -108q82 -93 82 -213v-171q0 -125 -89 -213q-88 -89 -213 -89h-618q-125 0 -214 82t-89 198v132h296v-115q4 -1 7 -1h618q6 0 6 6v171q0 8 -8 17q-8 10 -16 11l-672 88 q-119 16 -200 109q-82 93 -82 213z" />
<glyph unicode="6" horiz-adv-x="1439" d="M90 302v831q0 125 89 213q88 89 213 89h855v-296h-855q-6 0 -6 -6v-261q0 -6 6 -6h670q125 0 213 -89q89 -89 89 -214v-261q0 -125 -89 -213q-88 -89 -213 -89h-670q-125 0 -213 89q-89 88 -89 213zM386 302q0 -6 6 -6h670q6 0 6 6v261q0 6 -6 6h-670q-6 0 -6 -6v-261z " />
<glyph unicode="7" horiz-adv-x="1424" d="M91 1029v130q0 114 87 194q87 81 210 81h659q123 0 210 -87t87 -210v-51q0 -95 -48 -198q-47 -102 -120 -163l-249 -209q-23 -20 -44 -64q-20 -44 -20 -75v-377h-291v377q0 96 47 198q48 102 121 163l249 210q23 19 43 63q21 44 21 75v51q0 6 -6 6h-659q-3 0 -6 -1v-113 h-291z" />
<glyph unicode="8" horiz-adv-x="1446" d="M89 302v261q0 83 43 155q-43 71 -43 154v261q0 125 89 213q88 89 213 89h670q125 0 213 -89q89 -88 89 -213v-261q0 -83 -42 -154q42 -72 42 -155v-261q0 -125 -89 -213q-88 -89 -213 -89h-670q-125 0 -213 89q-89 88 -89 213zM385 302q0 -6 6 -6h670q6 0 6 6v261 q0 6 -6 6h-670q-6 0 -6 -6v-261zM385 872q0 -6 6 -6h670q6 0 6 6v261q0 6 -6 6h-670q-6 0 -6 -6v-261z" />
<glyph unicode="9" d="M90 871v260q0 125 89 213q88 89 213 89h668q125 0 214 -89q88 -88 88 -213v-829q0 -125 -88 -213q-89 -89 -214 -89h-853v296h853q7 0 7 6v260q0 7 -7 7h-668q-125 0 -213 88q-89 89 -89 214zM386 871q0 -7 6 -7h668q7 0 7 7v260q0 6 -7 6h-668q-6 0 -6 -6v-260z" />
<glyph unicode=":" horiz-adv-x="477" d="M90 -30v290h295v-290h-295zM90 572v291h295v-291h-295z" />
<glyph unicode=";" horiz-adv-x="491" d="M90 260h296v-483h-122zM90 572v291h296v-291h-296z" />
<glyph unicode="&#x3c;" horiz-adv-x="1108" />
<glyph unicode="=" horiz-adv-x="1108" />
<glyph unicode="&#x3e;" horiz-adv-x="1108" />
<glyph unicode="?" horiz-adv-x="1446" d="M91 1119v130q0 114 87 194q87 81 210 81h659q123 0 210 -87t87 -210v-51q0 -95 -48 -198q-47 -102 -120 -163l-249 -209q-23 -20 -44 -64q-20 -44 -20 -75l-1 -61h-295l5 61q0 96 47 198q48 102 121 163l249 210q23 19 43 63q21 44 21 75v51q0 6 -6 6h-659q-3 0 -6 -1 v-113h-291zM567 -30h295v290h-295v-290z" />
<glyph unicode="@" horiz-adv-x="1688" d="M103 851q58 310 318 489q260 178 571 120q309 -58 487 -319q179 -260 121 -570q-33 -176 -140 -318q3 5 -2 -2q-2 -2 -1 -1q-81 -108 -290 -108l-15 1q-86 1 -140 71l73 -227q-113 -37 -233 -37q-71 0 -141 13q-310 58 -488 318t-120 570zM394 797q-35 -189 74 -348 t298 -195q108 -20 214 11q-23 50 -36 120q-15 -1 -22 -1h-189q-130 0 -214 95t-68 225l8 67q15 119 108 201t213 82h189q131 0 215 -96q76 -86 70 -204l-2 -20l-9 -67l-17 -141q2 -39 8 -79q56 81 74 179q36 189 -73 348t-298 194q-189 36 -348 -73t-195 -298zM747 680h175 q24 0 27 24l7 53h-176q-23 0 -26 -23z" />
<glyph unicode="A" horiz-adv-x="1445" d="M90 0v1133q0 125 89 213q88 89 213 89h670q125 0 213 -89q89 -88 89 -213v-1133h-296v406q-7 -1 -6 -1h-670q1 0 -6 1v-406h-296zM386 701h682v432q0 6 -6 6h-670q-6 0 -6 -6v-432z" />
<glyph unicode="B" horiz-adv-x="1431" d="M89 0v1434h971q125 0 214 -89q88 -88 88 -213v-425q0 -83 -42 -154q42 -71 42 -154v-97q0 -125 -88 -213q-89 -89 -214 -89h-971zM385 302q0 -6 6 -6h669q6 0 6 6v97q0 6 -6 6h-669q-6 0 -6 -6v-97zM385 707q0 -6 6 -6h669q6 0 6 6v425q0 6 -6 6h-669q-6 0 -6 -6v-425z " />
<glyph unicode="C" horiz-adv-x="1446" d="M92 302v831q0 125 89 213q88 89 213 89h670q125 0 213 -82q89 -82 89 -198v-132h-296v115q-3 1 -6 1h-670q-6 0 -6 -6v-831q0 -6 6 -6h670q3 0 6 1v115h296v-132q0 -116 -89 -198q-88 -82 -213 -82h-670q-125 0 -213 89q-89 88 -89 213z" />
<glyph unicode="D" horiz-adv-x="1431" d="M89 0v1435h972q125 0 213 -89q89 -88 89 -213v-831q0 -125 -89 -213q-88 -89 -213 -89h-972zM385 302q0 -6 6 -6h670q6 0 6 6v831q0 6 -6 6h-670q-6 0 -6 -6v-831z" />
<glyph unicode="E" horiz-adv-x="1440" d="M92 0v1435h1272v-296h-970q-6 0 -6 -6v-425q0 -7 6 -7h855v-296h-855q-6 0 -6 -6v-97q0 -6 6 -6h970v-296h-970q1 0 -6 0h-296z" />
<glyph unicode="F" horiz-adv-x="1367" d="M92 0v1435h1272v-296h-970q-6 0 -6 -6v-425q0 -7 6 -7h855v-296h-855q-6 0 -6 -6v-399h6h-302z" />
<glyph unicode="G" horiz-adv-x="1431" d="M88 302v831q0 125 89 213q88 89 213 89h670q125 0 213 -82q89 -82 89 -198v-132h-296v115q-3 1 -6 1h-670q-6 0 -6 -6v-831q0 -6 6 -6h670q3 0 6 1v108h-213v296h509v-413q0 -119 -89 -204q-88 -84 -213 -84h-670q-125 0 -213 89q-89 88 -89 213z" />
<glyph unicode="H" horiz-adv-x="1439" d="M90 0v1435h296v-734h682v734h296v-1435h-296v405h-682v-405h-296z" />
<glyph unicode="I" horiz-adv-x="470" d="M90 0v1434h296v-1434h-296z" />
<glyph unicode="J" horiz-adv-x="1346" d="M3 288v140h296v-131q3 -1 6 -1h670q6 0 6 6v837h-213v296h509v-1133q0 -125 -89 -213q-88 -89 -213 -89h-670q-125 0 -213 84q-89 85 -89 204z" />
<glyph unicode="K" horiz-adv-x="1446" d="M92 2v1433h296v-569h161l480 569h387l-605 -717l606 -718h-387l-481 571h-161v-569h-296z" />
<glyph unicode="L" horiz-adv-x="1431" d="M89 0v1434h296v-1132q0 -6 6 -6h669h6v115h296v-131q0 -116 -88 -198q-89 -82 -214 -82h-971z" />
<glyph unicode="M" horiz-adv-x="1866" d="M89 -7v1222q0 104 51 162q33 38 81 51q22 6 44 6q25 0 51 -8q74 -24 127 -113l499 -838l498 838q53 89 127 113q26 8 51 8q22 0 44 -6q48 -13 81 -51q51 -58 51 -162v-1222h-295v839l-556 -938l-558 938v-839h-296z" />
<glyph unicode="N" horiz-adv-x="1439" d="M88 0v1210q0 170 128 213q28 9 56 9q19 0 39 -4q76 -17 136 -97l630 -823v927h296v-1210q0 -170 -128 -213q-28 -9 -56 -9q-19 0 -39 4q-76 17 -137 97l-629 823v-927h-296z" />
<glyph unicode="O" horiz-adv-x="1439" d="M92 302v831q0 125 89 213q88 89 213 89h670q125 0 213 -89q89 -88 89 -213v-831q0 -125 -89 -213q-88 -89 -213 -89h-670q-125 0 -213 89q-89 88 -89 213zM388 302q0 -6 6 -6h670q6 0 6 6v831q0 6 -6 6h-670q-6 0 -6 -6v-831z" />
<glyph unicode="P" horiz-adv-x="1389" d="M89 0v1435h972q125 0 213 -89q89 -88 89 -213v-425q0 -125 -89 -214q-88 -89 -213 -89h-670q1 0 -6 1v-406h-296zM385 708q0 -7 6 -7h670q6 0 6 7v425q0 6 -6 6h-670q-6 0 -6 -6v-425z" />
<glyph unicode="Q" horiz-adv-x="1439" d="M88 302v831q0 125 89 213q88 89 213 89h670q125 0 213 -89q89 -88 89 -213v-831q0 -125 -89 -213q-88 -89 -213 -89h-670q-125 0 -213 89q-89 88 -89 213zM384 302q0 -6 6 -6h466l-211 133l158 250l263 -166v620q0 6 -6 6h-670q-6 0 -6 -6v-831z" />
<glyph unicode="R" horiz-adv-x="1488" d="M92 2v1431h969q125 0 213 -88q89 -89 89 -214v-423q0 -117 -79 -204q-79 -86 -195 -97l428 -407h-428l-426 406h-269h-7v-404h-295zM387 708q0 -7 7 -7h667q7 0 7 7v423q0 7 -7 7h-667q-7 0 -7 -7v-423z" />
<glyph unicode="S" horiz-adv-x="1439" d="M92 279v132h295v-115q3 -1 7 -1h668q6 0 6 7v58q0 18 -17 44t-35 33l-692 292q-99 42 -165 142q-67 100 -67 208v51q0 125 88 214q89 88 214 88h668q124 0 213 -82q88 -82 88 -197v-132h-295v115q-3 1 -6 1h-668q-7 0 -7 -7v-51q0 -19 18 -45q17 -26 34 -33l692 -291 q99 -42 166 -142q66 -101 66 -208v-58q0 -125 -88 -214q-89 -88 -213 -88h-668q-125 0 -214 82q-88 82 -88 197z" />
<glyph unicode="T" horiz-adv-x="1360" d="M50 1138v296h1264v-296h-484v-1138h-296v1138h-484z" />
<glyph unicode="U" horiz-adv-x="1439" d="M92 302v1133h296v-1133q0 -6 6 -6h670q6 0 6 6v1133h296v-1133q0 -125 -89 -213q-88 -89 -213 -89h-670q-125 0 -213 89q-89 88 -89 213z" />
<glyph unicode="V" horiz-adv-x="1624" d="M6 1434h328l492 -1021l469 1021h327l-594 -1290q-65 -143 -197 -144h-2q-131 0 -199 140z" />
<glyph unicode="W" horiz-adv-x="2508" d="M9 1433h334l428 -987l490 1092l519 -1092l406 987h323l-529 -1282q-61 -150 -195 -151h-2q-133 0 -197 148l-315 683l-300 -680q-62 -150 -195 -151h-2q-133 0 -197 148z" />
<glyph unicode="X" horiz-adv-x="1275" d="M2 0v231q0 82 50 178q44 84 107 144l197 187l-178 143q-71 56 -120 139q-56 95 -56 181v231h295v-228q11 -49 65 -92l261 -209q8 -7 25 -6q17 0 25 7l240 202q56 47 65 98v228h296v-231q0 -85 -55 -180q-47 -83 -116 -141l-185 -156l193 -174q65 -59 111 -142 q52 -95 52 -179v-231h-296v229q-8 52 -65 104l-273 246q-4 4 -12 4q-9 -1 -13 -4l-252 -240q-58 -56 -66 -110v-229h-295z" />
<glyph unicode="Y" horiz-adv-x="1275" d="M-2 1202v233h296v-230q11 -49 65 -93l261 -209q8 -7 25 -7q17 1 26 8l240 202q55 47 65 98v231h296v-233q0 -86 -54 -181q-48 -83 -116 -141l-241 -203q-34 -29 -78 -48v-629h-296v638q-29 15 -52 34l-261 209q-70 56 -120 139q-56 95 -56 182z" />
<glyph unicode="Z" horiz-adv-x="1325" d="M93 1139v296h908q158 0 214 -121q19 -42 19 -84q0 -78 -67 -157l-668 -777h740v-296h-908q-158 0 -214 121q-19 42 -19 84q0 78 67 157l668 777h-740z" />
<glyph unicode="[" horiz-adv-x="758" />
<glyph unicode="\" horiz-adv-x="990" d="M21 1434h296l652 -1592h-296z" />
<glyph unicode="]" horiz-adv-x="758" />
<glyph unicode="^" horiz-adv-x="904" d="M88 1140l366 366l367 -366h-246l-121 121l-120 -121h-246z" />
<glyph unicode="_" horiz-adv-x="1204" d="M90 73h1030v-296h-1030v296z" />
<glyph unicode="`" horiz-adv-x="527" d="M91 1430h296l46 -290h-171z" />
<glyph unicode="a" d="M91 303v59q0 125 89 214q88 88 214 88h669q7 0 7 7v57q0 6 -7 6h-824v296h824q125 0 214 -89q89 -88 89 -213v-728h-972q-126 0 -214 89q-89 88 -89 214zM387 303q0 -7 7 -7h669q7 0 7 7v59q0 6 -7 6h-669q-7 0 -7 -6v-59z" />
<glyph unicode="b" horiz-adv-x="1436" d="M90 0v1435h296v-406q9 1 6 1h670q125 0 213 -89q89 -89 89 -214v-425q0 -125 -89 -213q-88 -89 -213 -89h-972zM386 302q0 -6 6 -6h670q6 0 6 6v425q0 7 -6 7h-670q-6 0 -6 -7v-425z" />
<glyph unicode="c" horiz-adv-x="1431" d="M89 302v420q0 125 89 213q88 89 213 89h668q125 0 214 -82q88 -82 88 -198v-131h-295v115h-7h-668q-6 0 -6 -6v-420q0 -6 6 -6h668h7v115h295v-132q0 -115 -88 -197q-89 -82 -214 -82h-668q-125 0 -213 89q-89 88 -89 213z" />
<glyph unicode="d" horiz-adv-x="1446" d="M90 302v425q0 125 89 214q88 89 213 89h670q-3 0 6 -1v406h296v-1435h-972q-125 0 -213 89q-89 88 -89 213zM386 302q0 -6 6 -6h670q6 0 6 6v425q0 7 -6 7h-670q-6 0 -6 -7v-425z" />
<glyph unicode="e" horiz-adv-x="1436" d="M90 302v420q0 125 89 214q88 89 213 89h669q125 0 214 -82q88 -82 88 -198v-381h-977v-62q0 -6 6 -6h823v-296h-823q-125 0 -213 89q-89 88 -89 213zM386 660h681v68q-3 1 -6 1h-669q-6 0 -6 -7v-62z" />
<glyph unicode="f" horiz-adv-x="883" d="M91 0v1133q0 125 89 213q88 89 213 89h408v-296h-408q-6 0 -6 -6v-425q0 -7 6 -7h408v-296h-414v-405h-296z" />
<glyph unicode="g" horiz-adv-x="1460" d="M91 299v424q0 125 89 214q88 88 213 88h668q125 0 214 -88q88 -89 88 -214v-953q0 -112 -88 -191q-89 -79 -214 -79h-822v296h822h7v201h-675q-125 0 -213 89q-89 88 -89 213zM387 299q0 -6 6 -6h668q7 0 7 6v424q0 7 -7 7h-668q-6 0 -6 -7v-424z" />
<glyph unicode="h" horiz-adv-x="1433" d="M92 0v1435h295v-409q9 1 7 1h667q124 0 213 -89q88 -88 88 -213v-725h-295v725q0 6 -6 6h-667q-7 0 -7 -6v-725h-295z" />
<glyph unicode="i" horiz-adv-x="463" d="M90 0v1028h295v-1028h-295zM90 1144v290h295v-290h-295z" />
<glyph unicode="j" horiz-adv-x="477" d="M-327 -204h410q3 0 7 1v1232h296v-1258q0 -112 -89 -192q-89 -79 -214 -79h-410v296zM90 1144v290h296v-290h-296z" />
<glyph unicode="k" horiz-adv-x="1317" d="M90 4v1431h295v-776h161l307 363h386l-431 -511l431 -511h-386l-307 364h-161v-360h-295z" />
<glyph unicode="l" horiz-adv-x="463" d="M90 0v1434h296v-1434h-296z" />
<glyph unicode="m" horiz-adv-x="2426" d="M89 0v1029h296q9 0 6 0h669q84 0 155 -42q71 42 154 42h669q125 0 214 -88q89 -89 89 -214v-727h-296v727q0 6 -7 6h-669q-6 0 -6 -6v-727h-296v727q0 6 -7 6h-669q-6 0 -6 -6v-727h-296z" />
<glyph unicode="n" horiz-adv-x="1447" d="M91 0v1030h972q125 0 213 -89q89 -89 89 -214v-727h-296v727q0 7 -6 7h-670q-6 0 -6 -7v-727h-296z" />
<glyph unicode="o" horiz-adv-x="1442" d="M88 302v425q0 125 89 213q88 89 213 89h669q125 0 214 -89q88 -88 88 -213v-425q0 -125 -88 -213q-89 -89 -214 -89h-669q-125 0 -213 89q-89 88 -89 213zM384 302q0 -6 6 -6h669q6 0 6 6v425q0 6 -6 6h-669q-6 0 -6 -6v-425z" />
<glyph unicode="p" horiz-adv-x="1442" d="M86 -501v1525h970q125 0 214 -88q89 -89 89 -214v-424q0 -125 -89 -213q-89 -89 -214 -89h-674v-497h-296zM382 298q0 -6 6 -6h668q7 0 7 6v424q0 7 -7 7h-668q-6 0 -6 -7v-424z" />
<glyph unicode="q" horiz-adv-x="1431" d="M86 298v424q0 125 89 214q88 88 213 88h971v-1525h-296v497h-675q-125 0 -213 89q-89 88 -89 213zM382 298q0 -6 6 -6h668q7 0 7 6v424q0 7 -7 7h-668q-6 0 -6 -7v-424z" />
<glyph unicode="r" horiz-adv-x="1447" d="M90 0v1025h971q125 0 214 -82q88 -82 88 -198v-132h-295v115q-3 1 -7 1h-669q-6 0 -6 -7v-722h-296z" />
<glyph unicode="s" horiz-adv-x="1442" d="M90 280v132h296v-115q3 -1 6 -1h668q-12 12 -25 15l-676 140q-115 24 -192 113t-77 198q0 117 89 200q88 83 213 83h669q125 0 214 -82t89 -197v-132h-296v115h-7h-660q9 -6 18 -8l676 -140q113 -24 191 -115t78 -200q0 -118 -89 -202t-214 -84h-669q-125 0 -213 82 q-89 82 -89 198z" />
<glyph unicode="t" horiz-adv-x="1225" d="M90 728v296h379v409h296v-409h379v-296h-379v-728h-296v728h-379z" />
<glyph unicode="u" horiz-adv-x="1451" d="M93 303v723h296v-723q0 -7 7 -7h669q7 0 7 7v723h296v-723q0 -126 -89 -214q-88 -89 -214 -89h-669q-126 0 -214 89q-89 88 -89 214z" />
<glyph unicode="v" horiz-adv-x="1407" d="M50 1024h334l334 -633l316 633h331l-442 -885q-69 -138 -201 -139h-2q-130 0 -201 135z" />
<glyph unicode="w" horiz-adv-x="2412" d="M51 1029h334l337 -638l481 726l502 -726l319 638h331l-445 -890q-69 -138 -201 -139h-2q-130 0 -201 135l-299 438l-281 -434q-69 -138 -200 -139h-2q-131 0 -202 135z" />
<glyph unicode="x" horiz-adv-x="1367" d="M47 0v25q0 172 157 322l197 187l-178 143q-176 141 -176 321v24h295v-21q11 -50 65 -93l261 -209q25 -20 50 1l240 202q56 47 65 98v22h296v-24q0 -178 -170 -321l-186 -157l193 -174q163 -147 163 -321v-25h-296v23q-8 53 -65 104l-273 246q-12 12 -25 0l-252 -240 q-58 -56 -66 -110v-23h-295z" />
<glyph unicode="y" horiz-adv-x="1440" d="M88 301v728h296v-728q0 -7 7 -7h670q6 0 6 7v728h296v-1258q0 -112 -88 -192q-89 -79 -214 -79h-825v296h825q3 0 6 1v201h-676q-125 0 -214 89t-89 214z" />
<glyph unicode="z" horiz-adv-x="1317" d="M89 729v297h907q171 0 214 -129q10 -30 10 -59q0 -94 -105 -171l-496 -371h615v-296h-907q-171 0 -213 129q-10 31 -10 60q0 93 104 170l497 370h-616z" />
<glyph unicode="{" horiz-adv-x="1108" />
<glyph unicode="|" horiz-adv-x="1108" />
<glyph unicode="}" horiz-adv-x="1108" />
<glyph unicode="~" horiz-adv-x="833" d="M89 1181v32q-1 45 24 88q32 57 98 82q30 12 67 12q88 0 183 -55q57 -32 99 -32h9q12 5 13 12v30l167 3l1 -32q1 -45 -24 -88q-33 -57 -98 -82q-31 -11 -67 -11q-89 0 -183 55q-57 32 -100 32q-5 0 -8 -1q-13 -5 -13 -13l-2 -30l-30 -1z" />
<glyph unicode="&#xa1;" horiz-adv-x="463" d="M60 -30l30 1118h295l30 -1118h-355zM90 1234v290h295v-290h-295z" />
<glyph unicode="&#xa2;" horiz-adv-x="1139" />
<glyph unicode="&#xa3;" horiz-adv-x="1108" />
<glyph unicode="&#xa4;" horiz-adv-x="1108" />
<glyph unicode="&#xa5;" horiz-adv-x="1439" d="M88 149v296h489v124h-489v297h195l-19 15q-70 56 -120 139q-56 95 -56 182v233h296v-230q11 -49 65 -93l261 -209q8 -7 25 -7q17 1 26 8l240 202q55 48 65 98v231h296v-233q0 -86 -54 -181q-48 -83 -116 -141l-18 -14h188v-297h-489v-124h489v-296h-489v-149h-296v149 h-489z" />
<glyph unicode="&#xa6;" horiz-adv-x="1108" />
<glyph unicode="&#xa7;" horiz-adv-x="1108" />
<glyph unicode="&#xa8;" horiz-adv-x="840" d="M88 1140v290h295v-290h-295zM454 1140v290h295v-290h-295z" />
<glyph unicode="&#xa9;" horiz-adv-x="1674" />
<glyph unicode="&#xaa;" horiz-adv-x="648" />
<glyph unicode="&#xab;" horiz-adv-x="987" />
<glyph unicode="&#xac;" horiz-adv-x="1108" />
<glyph unicode="&#xad;" horiz-adv-x="1211" d="M90 570v295h1030v-295h-1030z" />
<glyph unicode="&#xae;" horiz-adv-x="1674" />
<glyph unicode="&#xaf;" horiz-adv-x="670" />
<glyph unicode="&#xb0;" horiz-adv-x="722" />
<glyph unicode="&#xb1;" horiz-adv-x="1014" />
<glyph unicode="&#xb2;" horiz-adv-x="1014" />
<glyph unicode="&#xb3;" horiz-adv-x="1014" />
<glyph unicode="&#xb4;" horiz-adv-x="513" d="M91 1140l47 290h295l-171 -290h-171z" />
<glyph unicode="&#xb5;" horiz-adv-x="1180" />
<glyph unicode="&#xb6;" horiz-adv-x="1108" />
<glyph unicode="&#xb7;" horiz-adv-x="553" />
<glyph unicode="&#xb8;" horiz-adv-x="1068" />
<glyph unicode="&#xb9;" horiz-adv-x="1014" />
<glyph unicode="&#xba;" horiz-adv-x="718" />
<glyph unicode="&#xbb;" horiz-adv-x="987" />
<glyph unicode="&#xbc;" horiz-adv-x="1708" />
<glyph unicode="&#xbd;" horiz-adv-x="1964" />
<glyph unicode="&#xbe;" horiz-adv-x="1708" />
<glyph unicode="&#xbf;" horiz-adv-x="1431" d="M91 267v51q0 95 47 198q48 102 121 163l249 209q23 20 43 64q21 44 21 75v61h296l-5 -61q0 -96 -47 -198q-48 -102 -121 -163l-249 -210q-23 -19 -43 -63q-21 -44 -21 -75v-51q0 -6 6 -6h659q3 0 6 1v113h291v-130q0 -114 -87 -194q-87 -81 -210 -81h-659q-123 0 -210 87 t-87 210zM572 1234v290h296v-290h-296z" />
<glyph unicode="&#xc0;" d="M90 0v1133q0 125 89 213q88 89 213 89h670q125 0 213 -89q89 -88 89 -213v-1133h-296v406q-7 -1 -6 -1h-670q1 0 -6 1v-406h-296zM386 701h682v432q0 6 -6 6h-670q-6 0 -6 -6v-432zM485 1786h296l46 -290h-171z" />
<glyph unicode="&#xc1;" d="M90 0v1133q0 125 89 213q88 89 213 89h670q125 0 213 -89q89 -88 89 -213v-1133h-296v406q-7 -1 -6 -1h-670q1 0 -6 1v-406h-296zM386 701h682v432q0 6 -6 6h-670q-6 0 -6 -6v-432zM656 1496l47 290h295l-171 -290h-171z" />
<glyph unicode="&#xc2;" horiz-adv-x="1446" d="M90 0v1133q0 125 89 213q88 89 213 89h670q125 0 213 -89q89 -88 89 -213v-1133h-296v406q-7 -1 -6 -1h-670q1 0 -6 1v-406h-296zM361 1496l366 366l366 -366h-246l-120 121l-120 -121h-246zM386 701h682v432q0 6 -6 6h-670q-6 0 -6 -6v-432z" />
<glyph unicode="&#xc3;" horiz-adv-x="1446" d="M90 0v1133q0 125 89 213q88 89 213 89h670q125 0 213 -89q89 -88 89 -213v-1133h-296v406q-7 -1 -6 -1h-670q1 0 -6 1v-406h-296zM386 701h682v432q0 6 -6 6h-670q-6 0 -6 -6v-432zM397 1537v32q-1 45 23 88q33 57 99 82q30 12 67 12q88 0 183 -55q57 -32 99 -32h8 q12 5 14 12v30l167 3l1 -32q0 -45 -24 -88q-33 -57 -99 -82q-30 -11 -67 -11q-88 0 -183 55q-57 32 -99 32q-6 0 -8 -1q-13 -5 -14 -13l-1 -30l-31 -1z" />
<glyph unicode="&#xc4;" horiz-adv-x="1460" d="M90 0v1133q0 125 89 213q88 89 213 89h670q125 0 213 -89q89 -88 89 -213v-1133h-296v406q-7 -1 -6 -1h-670q1 0 -6 1v-406h-296zM386 701h682v432q0 6 -6 6h-670q-6 0 -6 -6v-432zM397 1496v290h295v-290h-295zM762 1496v290h296v-290h-296z" />
<glyph unicode="&#xc5;" horiz-adv-x="1540" />
<glyph unicode="&#xc6;" horiz-adv-x="2118" />
<glyph unicode="&#xc7;" horiz-adv-x="1399" />
<glyph unicode="&#xc8;" d="M92 0v1435h1272v-296h-970q-6 0 -6 -6v-425q0 -7 6 -7h855v-296h-855q-6 0 -6 -6v-97q0 -6 6 -6h970v-296h-970q1 0 -6 0h-296zM485 1786h296l46 -290h-171z" />
<glyph unicode="&#xc9;" d="M92 0v1435h1272v-296h-970q-6 0 -6 -6v-425q0 -7 6 -7h855v-296h-855q-6 0 -6 -6v-97q0 -6 6 -6h970v-296h-970q1 0 -6 0h-296zM656 1496l47 290h295l-171 -290h-171z" />
<glyph unicode="&#xca;" horiz-adv-x="1446" d="M92 0v1435h1272v-296h-970q-6 0 -6 -6v-425q0 -7 6 -7h855v-296h-855q-6 0 -6 -6v-97q0 -6 6 -6h970v-296h-970q1 0 -6 0h-296zM362 1496l366 366l367 -366h-246l-121 121l-120 -121h-246z" />
<glyph unicode="&#xcb;" d="M92 0v1435h1272v-296h-970q-6 0 -6 -6v-425q0 -7 6 -7h855v-296h-855q-6 0 -6 -6v-97q0 -6 6 -6h970v-296h-970q1 0 -6 0h-296zM397 1496v290h295v-290h-295zM762 1496v290h296v-290h-296z" />
<glyph unicode="&#xcc;" horiz-adv-x="477" d="M-13 1786h296l46 -290h-171zM90 0v1434h296v-1434h-296z" />
<glyph unicode="&#xcd;" horiz-adv-x="477" d="M90 0v1434h296v-1434h-296zM165 1496l47 290h295l-171 -290h-171z" />
<glyph unicode="&#xce;" horiz-adv-x="477" d="M-124 1496l366 366l367 -366h-246l-121 121l-120 -121h-246zM94 0v1434h296v-1434h-296z" />
<glyph unicode="&#xcf;" horiz-adv-x="484" d="M-88 1496v290h295v-290h-295zM95 0v1434h295v-1434h-295zM278 1496v290h295v-290h-295z" />
<glyph unicode="&#xd0;" horiz-adv-x="1518" />
<glyph unicode="&#xd1;" d="M88 0v1210q0 170 128 213q47 16 95 5q76 -17 136 -97l630 -823v927h296v-1210q0 -170 -128 -213q-47 -16 -95 -5q-76 17 -137 97l-629 823v-927h-296zM400 1537v32q-1 45 24 88q32 57 98 82q30 12 67 12q89 0 183 -55q57 -32 99 -32h9q12 5 13 12v30l167 3l1 -32 q1 -45 -24 -88q-33 -57 -98 -82q-31 -11 -67 -11q-89 0 -183 55q-57 32 -100 32q-5 0 -8 -1q-13 -5 -13 -13l-2 -30l-30 -1z" />
<glyph unicode="&#xd2;" horiz-adv-x="1460" d="M92 302v831q0 125 89 213q88 89 213 89h670q125 0 213 -89q89 -88 89 -213v-831q0 -125 -89 -213q-88 -89 -213 -89h-670q-125 0 -213 89q-89 88 -89 213zM388 302q0 -6 6 -6h670q6 0 6 6v831q0 6 -6 6h-670q-6 0 -6 -6v-831zM485 1786h296l46 -290h-171z" />
<glyph unicode="&#xd3;" horiz-adv-x="1460" d="M92 302v831q0 125 89 213q88 89 213 89h670q125 0 213 -89q89 -88 89 -213v-831q0 -125 -89 -213q-88 -89 -213 -89h-670q-125 0 -213 89q-89 88 -89 213zM388 302q0 -6 6 -6h670q6 0 6 6v831q0 6 -6 6h-670q-6 0 -6 -6v-831zM656 1496l47 290h295l-171 -290h-171z" />
<glyph unicode="&#xd4;" d="M92 302v831q0 125 89 213q88 89 213 89h670q125 0 213 -89q89 -88 89 -213v-831q0 -125 -89 -213q-88 -89 -213 -89h-670q-125 0 -213 89q-89 88 -89 213zM361 1496l366 366l366 -366h-246l-120 121l-120 -121h-246zM388 302q0 -6 6 -6h670q6 0 6 6v831q0 6 -6 6h-670 q-6 0 -6 -6v-831z" />
<glyph unicode="&#xd5;" horiz-adv-x="1460" d="M92 302v831q0 125 89 213q88 89 213 89h670q125 0 213 -89q89 -88 89 -213v-831q0 -125 -89 -213q-88 -89 -213 -89h-670q-125 0 -213 89q-89 88 -89 213zM388 302q0 -6 6 -6h670q6 0 6 6v831q0 6 -6 6h-670q-6 0 -6 -6v-831zM397 1537v32q-1 45 23 88q33 57 99 82 q30 12 67 12q88 0 183 -55q57 -32 99 -32h8q12 5 14 12v30l167 3l1 -32q0 -45 -24 -88q-33 -57 -99 -82q-30 -11 -67 -11q-88 0 -183 55q-57 32 -99 32q-6 0 -8 -1q-13 -5 -14 -13l-1 -30l-31 -1z" />
<glyph unicode="&#xd6;" horiz-adv-x="1467" d="M92 302v831q0 125 89 213q88 89 213 89h670q125 0 213 -89q89 -88 89 -213v-831q0 -125 -89 -213q-88 -89 -213 -89h-670q-125 0 -213 89q-89 88 -89 213zM388 302q0 -6 6 -6h670q6 0 6 6v831q0 6 -6 6h-670q-6 0 -6 -6v-831zM397 1496v290h295v-290h-295zM762 1496v290 h296v-290h-296z" />
<glyph unicode="&#xd7;" horiz-adv-x="1108" />
<glyph unicode="&#xd8;" horiz-adv-x="1614" />
<glyph unicode="&#xd9;" d="M92 302v1133h296v-1133q0 -6 6 -6h670q6 0 6 6v1133h296v-1133q0 -125 -89 -213q-88 -89 -213 -89h-670q-125 0 -213 89q-89 88 -89 213zM485 1786h296l46 -290h-171z" />
<glyph unicode="&#xda;" d="M92 302v1133h296v-1133q0 -6 6 -6h670q6 0 6 6v1133h296v-1133q0 -125 -89 -213q-88 -89 -213 -89h-670q-125 0 -213 89q-89 88 -89 213zM656 1496l47 290h295l-171 -290h-171z" />
<glyph unicode="&#xdb;" horiz-adv-x="1446" d="M92 302v1133h296v-1133q0 -6 6 -6h670q6 0 6 6v1133h296v-1133q0 -125 -89 -213q-88 -89 -213 -89h-670q-125 0 -213 89q-89 88 -89 213zM361 1496l366 366l366 -366h-246l-120 121l-120 -121h-246z" />
<glyph unicode="&#xdc;" horiz-adv-x="1446" d="M92 302v1133h296v-1133q0 -6 6 -6h670q6 0 6 6v1133h296v-1133q0 -125 -89 -213q-88 -89 -213 -89h-670q-125 0 -213 89q-89 88 -89 213zM397 1496v290h295v-290h-295zM762 1496v290h296v-290h-296z" />
<glyph unicode="&#xdd;" horiz-adv-x="1275" d="M-2 1202v233h296v-230q11 -49 65 -93l261 -209q8 -7 25 -7q17 1 26 8l240 202q55 47 65 98v231h296v-233q0 -86 -54 -181q-48 -83 -116 -141l-241 -203q-34 -29 -78 -48v-629h-296v638q-29 15 -52 34l-261 209q-70 56 -120 139q-56 95 -56 182zM570 1496l47 290h295 l-171 -290h-171z" />
<glyph unicode="&#xde;" horiz-adv-x="1120" />
<glyph unicode="&#xdf;" horiz-adv-x="1251" />
<glyph unicode="&#xe0;" horiz-adv-x="1460" d="M91 303v59q0 125 89 214q88 88 214 88h669q7 0 7 7v57q0 6 -7 6h-824v296h824q125 0 214 -89q89 -88 89 -213v-728h-972q-126 0 -214 89q-89 88 -89 214zM387 303q0 -7 7 -7h669q7 0 7 7v59q0 6 -7 6h-669q-7 0 -7 -6v-59zM485 1430h296l46 -290h-171z" />
<glyph unicode="&#xe1;" horiz-adv-x="1460" d="M91 303v59q0 125 89 214q88 88 214 88h669q7 0 7 7v57q0 6 -7 6h-824v296h824q125 0 214 -89q89 -88 89 -213v-728h-972q-126 0 -214 89q-89 88 -89 214zM387 303q0 -7 7 -7h669q7 0 7 7v59q0 6 -7 6h-669q-7 0 -7 -6v-59zM656 1140l47 290h295l-171 -290h-171z" />
<glyph unicode="&#xe2;" horiz-adv-x="1460" d="M91 303v59q0 125 89 214q88 88 214 88h669q7 0 7 7v57q0 6 -7 6h-824v296h824q125 0 214 -89q89 -88 89 -213v-728h-972q-126 0 -214 89q-89 88 -89 214zM362 1140l367 366l366 -366h-246l-120 121l-121 -121h-246zM387 303q0 -7 7 -7h669q7 0 7 7v59q0 6 -7 6h-669 q-7 0 -7 -6v-59z" />
<glyph unicode="&#xe3;" d="M91 303v59q0 125 89 214q88 88 214 88h669q7 0 7 7v57q0 6 -7 6h-824v296h824q125 0 214 -89q89 -88 89 -213v-728h-972q-126 0 -214 89q-89 88 -89 214zM387 303q0 -7 7 -7h669q7 0 7 7v59q0 6 -7 6h-669q-7 0 -7 -6v-59zM397 1181v32q-1 45 23 88q33 57 99 82 q30 12 67 12q88 0 183 -55q57 -32 99 -32h8q12 5 14 12v30l167 3l1 -32q0 -45 -24 -88q-33 -57 -99 -82q-30 -11 -67 -11q-88 0 -183 55q-57 32 -99 32q-6 0 -8 -1q-13 -5 -14 -13l-1 -30l-31 -1z" />
<glyph unicode="&#xe4;" d="M91 303v59q0 125 89 214q88 88 214 88h669q7 0 7 7v57q0 6 -7 6h-824v296h824q125 0 214 -89q89 -88 89 -213v-728h-972q-126 0 -214 89q-89 88 -89 214zM387 303q0 -7 7 -7h669q7 0 7 7v59q0 6 -7 6h-669q-7 0 -7 -6v-59zM397 1140v290h295v-290h-295zM762 1140v290h296 v-290h-296z" />
<glyph unicode="&#xe5;" horiz-adv-x="922" />
<glyph unicode="&#xe6;" horiz-adv-x="1454" />
<glyph unicode="&#xe7;" horiz-adv-x="905" />
<glyph unicode="&#xe8;" horiz-adv-x="1446" d="M90 302v420q0 125 89 214q88 89 213 89h669q125 0 214 -82q88 -82 88 -198v-381h-977v-62q0 -6 6 -6h823v-296h-823q-125 0 -213 89q-89 88 -89 213zM386 660h681v68q-3 1 -6 1h-669q-6 0 -6 -7v-62zM485 1430h296l47 -290h-171z" />
<glyph unicode="&#xe9;" horiz-adv-x="1446" d="M90 302v420q0 125 89 214q88 89 213 89h669q125 0 214 -82q88 -82 88 -198v-381h-977v-62q0 -6 6 -6h823v-296h-823q-125 0 -213 89q-89 88 -89 213zM386 660h681v68q-3 1 -6 1h-669q-6 0 -6 -7v-62zM656 1140l47 290h296l-171 -290h-172z" />
<glyph unicode="&#xea;" d="M90 302v420q0 125 89 214q88 89 213 89h669q125 0 214 -82q88 -82 88 -198v-381h-977v-62q0 -6 6 -6h823v-296h-823q-125 0 -213 89q-89 88 -89 213zM360 1140l367 366l366 -366h-246l-120 121l-121 -121h-246zM386 660h681v68q-3 1 -6 1h-669q-6 0 -6 -7v-62z" />
<glyph unicode="&#xeb;" horiz-adv-x="1439" d="M90 302v420q0 125 89 214q88 89 213 89h669q125 0 214 -82q88 -82 88 -198v-381h-977v-62q0 -6 6 -6h823v-296h-823q-125 0 -213 89q-89 88 -89 213zM386 660h681v68q-3 1 -6 1h-669q-6 0 -6 -7v-62zM397 1140v290h295v-290h-295zM763 1140v290h295v-290h-295z" />
<glyph unicode="&#xec;" horiz-adv-x="470" d="M-14 1430h296l46 -290h-171zM90 0v1028h295v-1028h-295z" />
<glyph unicode="&#xed;" horiz-adv-x="491" d="M90 0v1028h295v-1028h-295zM164 1140l47 290h295l-171 -290h-171z" />
<glyph unicode="&#xee;" horiz-adv-x="477" d="M-122 1140l366 366l367 -366h-246l-121 121l-120 -121h-246zM90 0v1028h295v-1028h-295z" />
<glyph unicode="&#xef;" horiz-adv-x="477" d="M-80 1140v290h295v-290h-295zM90 0v1028h296v-1028h-296zM286 1140v290h295v-290h-295z" />
<glyph unicode="&#xf0;" horiz-adv-x="1139" />
<glyph unicode="&#xf1;" d="M91 0v1030h972q125 0 213 -89q89 -89 89 -214v-727h-296v727q0 7 -6 7h-670q-6 0 -6 -7v-727h-296zM397 1181v32q-1 45 23 88q33 57 99 82q30 12 67 12q88 0 183 -55q57 -32 99 -32h8q12 5 14 12v30l167 3l1 -32q0 -45 -24 -88q-33 -57 -99 -82q-30 -11 -67 -11 q-88 0 -183 55q-57 32 -99 32q-6 0 -8 -1q-13 -5 -14 -13l-1 -30l-31 -1z" />
<glyph unicode="&#xf2;" horiz-adv-x="1446" d="M88 302v425q0 125 89 213q88 89 213 89h669q125 0 214 -89q88 -88 88 -213v-425q0 -125 -88 -213q-89 -89 -214 -89h-669q-125 0 -213 89q-89 88 -89 213zM384 302q0 -6 6 -6h669q6 0 6 6v425q0 6 -6 6h-669q-6 0 -6 -6v-425zM485 1430h296l46 -290h-171z" />
<glyph unicode="&#xf3;" horiz-adv-x="1439" d="M88 302v425q0 125 89 213q88 89 213 89h669q125 0 214 -89q88 -88 88 -213v-425q0 -125 -88 -213q-89 -89 -214 -89h-669q-125 0 -213 89q-89 88 -89 213zM384 302q0 -6 6 -6h669q6 0 6 6v425q0 6 -6 6h-669q-6 0 -6 -6v-425zM656 1140l47 290h295l-171 -290h-171z" />
<glyph unicode="&#xf4;" horiz-adv-x="1446" d="M88 302v425q0 125 89 213q88 89 213 89h669q125 0 214 -89q88 -88 88 -213v-425q0 -125 -88 -213q-89 -89 -214 -89h-669q-125 0 -213 89q-89 88 -89 213zM362 1140l367 366l366 -366h-246l-120 121l-121 -121h-246zM384 302q0 -6 6 -6h669q6 0 6 6v425q0 6 -6 6h-669 q-6 0 -6 -6v-425z" />
<glyph unicode="&#xf5;" horiz-adv-x="1424" d="M88 302v425q0 125 89 213q88 89 213 89h669q125 0 214 -89q88 -88 88 -213v-425q0 -125 -88 -213q-89 -89 -214 -89h-669q-125 0 -213 89q-89 88 -89 213zM384 302q0 -6 6 -6h669q6 0 6 6v425q0 6 -6 6h-669q-6 0 -6 -6v-425zM397 1181v32q-1 45 23 88q33 57 99 82 q30 12 67 12q88 0 183 -55q57 -32 99 -32h8q12 5 14 12v30l167 3l1 -32q0 -45 -24 -88q-33 -57 -99 -82q-30 -11 -67 -11q-88 0 -183 55q-57 32 -99 32q-6 0 -8 -1q-13 -5 -14 -13l-1 -30l-31 -1z" />
<glyph unicode="&#xf6;" horiz-adv-x="1439" d="M88 302v425q0 125 89 213q88 89 213 89h669q125 0 214 -89q88 -88 88 -213v-425q0 -125 -88 -213q-89 -89 -214 -89h-669q-125 0 -213 89q-89 88 -89 213zM384 302q0 -6 6 -6h669q6 0 6 6v425q0 6 -6 6h-669q-6 0 -6 -6v-425zM397 1140v290h295v-290h-295zM763 1140v290 h295v-290h-295z" />
<glyph unicode="&#xf7;" horiz-adv-x="1108" />
<glyph unicode="&#xf8;" horiz-adv-x="1010" />
<glyph unicode="&#xf9;" horiz-adv-x="1460" d="M93 303v723h296v-723q0 -7 7 -7h669q7 0 7 7v723h296v-723q0 -126 -89 -214q-88 -89 -214 -89h-669q-126 0 -214 89q-89 88 -89 214zM485 1430h296l46 -290h-171z" />
<glyph unicode="&#xfa;" d="M93 303v723h296v-723q0 -7 7 -7h669q7 0 7 7v723h296v-723q0 -126 -89 -214q-88 -89 -214 -89h-669q-126 0 -214 89q-89 88 -89 214zM656 1140l47 290h295l-171 -290h-171z" />
<glyph unicode="&#xfb;" d="M93 303v723h296v-723q0 -7 7 -7h669q7 0 7 7v723h296v-723q0 -126 -89 -214q-88 -89 -214 -89h-669q-126 0 -214 89q-89 88 -89 214zM362 1140l367 366l366 -366h-246l-120 121l-121 -121h-246z" />
<glyph unicode="&#xfc;" d="M93 303v723h296v-723q0 -7 7 -7h669q7 0 7 7v723h296v-723q0 -126 -89 -214q-88 -89 -214 -89h-669q-126 0 -214 89q-89 88 -89 214zM397 1140v290h295v-290h-295zM763 1140v290h295v-290h-295z" />
<glyph unicode="&#xfd;" horiz-adv-x="1439" d="M88 301v728h296v-728q0 -7 7 -7h670q6 0 6 7v728h296v-1258q0 -112 -88 -192q-89 -79 -214 -79h-825v296h825q3 0 6 1v201h-676q-125 0 -214 89t-89 214zM656 1140l47 290h295l-171 -290h-171z" />
<glyph unicode="&#xfe;" horiz-adv-x="1010" />
<glyph unicode="&#xff;" horiz-adv-x="1431" d="M88 301v728h296v-728q0 -7 7 -7h670q6 0 6 7v728h296v-1258q0 -112 -88 -192q-89 -79 -214 -79h-825v296h825q3 0 6 1v201h-676q-125 0 -214 89t-89 214zM397 1140v290h295v-290h-295zM762 1140v290h296v-290h-296z" />
<glyph unicode="&#x2c6;" horiz-adv-x="902" />
<glyph unicode="&#x2dc;" horiz-adv-x="847" d="M96 1181v32q-1 45 24 88q32 57 98 82q30 12 67 12q88 0 183 -55q57 -32 99 -32h9q12 5 13 12v30l167 3l1 -32q1 -45 -24 -88q-33 -57 -98 -82q-31 -11 -67 -11q-89 0 -183 55q-57 32 -100 32q-5 0 -8 -1q-13 -5 -13 -13l-2 -30l-30 -1z" />
<glyph unicode="&#x2000;" horiz-adv-x="931" />
<glyph unicode="&#x2001;" horiz-adv-x="1862" />
<glyph unicode="&#x2002;" horiz-adv-x="931" />
<glyph unicode="&#x2003;" horiz-adv-x="1862" />
<glyph unicode="&#x2004;" horiz-adv-x="620" />
<glyph unicode="&#x2005;" horiz-adv-x="465" />
<glyph unicode="&#x2006;" horiz-adv-x="310" />
<glyph unicode="&#x2007;" horiz-adv-x="310" />
<glyph unicode="&#x2008;" horiz-adv-x="232" />
<glyph unicode="&#x2009;" horiz-adv-x="372" />
<glyph unicode="&#x200a;" horiz-adv-x="103" />
<glyph unicode="&#x2010;" horiz-adv-x="1211" d="M90 570v295h1030v-295h-1030z" />
<glyph unicode="&#x2011;" horiz-adv-x="1211" d="M90 570v295h1030v-295h-1030z" />
<glyph unicode="&#x2012;" horiz-adv-x="1211" d="M90 570v295h1030v-295h-1030z" />
<glyph unicode="&#x2013;" horiz-adv-x="1108" />
<glyph unicode="&#x2014;" horiz-adv-x="2048" />
<glyph unicode="&#x2018;" horiz-adv-x="477" d="M90 1041v483h122l174 -483h-296z" />
<glyph unicode="&#x2019;" horiz-adv-x="484" d="M90 1524h296v-483h-122z" />
<glyph unicode="&#x201a;" horiz-adv-x="625" />
<glyph unicode="&#x201c;" horiz-adv-x="826" d="M90 1041v483h122l174 -483h-296zM452 1041v483h122l174 -483h-296z" />
<glyph unicode="&#x201d;" horiz-adv-x="826" d="M90 1524h296v-483h-122zM452 1524h296v-483h-122z" />
<glyph unicode="&#x201e;" horiz-adv-x="985" />
<glyph unicode="&#x2022;" horiz-adv-x="477" d="M90 572v291h295v-291h-295z" />
<glyph unicode="&#x2026;" horiz-adv-x="2048" />
<glyph unicode="&#x202f;" horiz-adv-x="372" />
<glyph unicode="&#x2039;" horiz-adv-x="676" />
<glyph unicode="&#x203a;" horiz-adv-x="676" />
<glyph unicode="&#x205f;" horiz-adv-x="465" />
<glyph unicode="&#x20ac;" horiz-adv-x="1108" />
<glyph unicode="&#x2122;" horiz-adv-x="1497" />
<glyph unicode="&#xe000;" horiz-adv-x="1020" d="M0 0v1020h1020v-1020h-1020z" />
</font>
</defs>
</svg>
