<?xml version="1.0" standalone="no"?>
<!DOCTYPE svg PUBLIC "-//W3C//DTD SVG 1.1//EN" "http://www.w3.org/Graphics/SVG/1.1/DTD/svg11.dtd" >
<svg xmlns="http://www.w3.org/2000/svg">
<metadata></metadata>
<defs>
<font id="gorilaregular" horiz-adv-x="1421" >
<font-face units-per-em="2048" ascent="1638" descent="-410" />
<missing-glyph horiz-adv-x="508" />
<glyph horiz-adv-x="2048" />
<glyph horiz-adv-x="2048" />
<glyph unicode="&#xd;" horiz-adv-x="508" />
<glyph unicode=" "  horiz-adv-x="508" />
<glyph unicode="&#x09;" horiz-adv-x="508" />
<glyph unicode="&#xa0;" horiz-adv-x="508" />
<glyph unicode="!" horiz-adv-x="290" d="M60 1454h172l-20 -1061h-132zM80 -30v227h132v-227h-132z" />
<glyph unicode="&#x22;" horiz-adv-x="672" />
<glyph unicode="#" horiz-adv-x="1188" d="M91 418l32 132h133l81 334h-133l33 132h132l33 133h132l-32 -133h333l33 133h132l-32 -133h132l-32 -132h-133l-81 -334h133l-32 -132h-133l-32 -133h-133l33 133h-334l-32 -133h-132l32 133h-133zM388 550h334l81 334h-333z" />
<glyph unicode="$" horiz-adv-x="1425" d="M87 219v150h132v-150q0 -35 33 -60t78 -25h764q46 0 78 32q33 33 33 78v67q0 52 -37 108q-37 55 -85 76l-793 333q-85 36 -144 125q-59 88 -59 181v59q0 100 71 171q71 72 172 72h316v235h132v-235h316q101 0 172 -64t71 -153v-151h-132v151q0 34 -33 59t-78 25h-764 q-46 0 -78 -32q-33 -32 -33 -78v-59q0 -53 37 -108t86 -76l792 -333q85 -36 144 -125t59 -181v-67q0 -100 -71 -171t-172 -71h-316v-236h-132v236h-316q-101 0 -172 63q-71 64 -71 154z" />
<glyph unicode="%" horiz-adv-x="1918" d="M90 1041v150q0 101 71 172t172 71h317q101 0 172 -71t71 -172v-150q0 -100 -71 -171t-172 -71h-317q-101 0 -172 71t-71 171zM222 1041q0 -45 33 -78q32 -32 78 -32h317q46 0 78 32q33 33 33 78v150q0 46 -33 78q-32 33 -78 33h-317q-46 0 -78 -33q-33 -32 -33 -78v-150z M409 0l967 1434h147l-967 -1434h-147zM1033 243v150q0 100 72 171q71 71 171 71h318q100 0 171 -71t71 -171v-150q0 -101 -71 -172t-171 -71h-318q-100 0 -171 71q-72 71 -72 172zM1166 243q0 -46 32 -78q32 -33 78 -33h318q45 0 78 33q32 32 32 78v150q0 45 -32 78 q-33 32 -78 32h-318q-46 0 -78 -32q-32 -33 -32 -78v-150z" />
<glyph unicode="&#x26;" horiz-adv-x="1618" d="M90 439q0 206 374 388q-170 128 -170 267q0 141 89 240q89 100 214 100t213 -100q89 -99 89 -240t-176 -272l378 -281l105 348l126 -38l-118 -394l327 -243l-79 -107l-290 216q-59 -146 -175 -224q-149 -99 -400 -99q-231 0 -369 120q-138 119 -138 319zM222 439 q0 -144 100 -225q99 -82 275 -82q210 0 322 75q96 63 142 199l-456 339q-133 -54 -242 -130q-141 -98 -141 -176zM427 1094q0 -92 170 -198q170 106 170 198q0 86 -50 147t-120 61q-71 0 -121 -61q-49 -61 -49 -147z" />
<glyph unicode="'" horiz-adv-x="297" d="M80 1454h132v-374h-61z" />
<glyph unicode="(" horiz-adv-x="601" d="M92 717q0 512 262 952h156q-286 -433 -286 -952q0 -520 286 -953h-156q-262 440 -262 953z" />
<glyph unicode=")" horiz-adv-x="622" d="M112 -236q286 433 286 953q0 519 -286 952h156q262 -440 262 -952q0 -513 -262 -953h-156z" />
<glyph unicode="*" horiz-adv-x="1047" d="M92 1089l41 126l329 -107v346h132v-346l329 107l41 -126l-329 -107l203 -280l-107 -77l-203 280l-203 -280l-107 77l203 280z" />
<glyph unicode="+" horiz-adv-x="1146" d="M90 651v132h419v419h133v-419h419v-132h-419v-419h-133v419h-419z" />
<glyph unicode="," horiz-adv-x="283" d="M80 197h132v-373h-61z" />
<glyph unicode="-" horiz-adv-x="1153" d="M90 651v132h971v-132h-971z" />
<glyph unicode="." horiz-adv-x="304" d="M80 -30v227h132v-227h-132z" />
<glyph unicode="/" horiz-adv-x="976" d="M8 -458l749 1892h147l-749 -1892h-147z" />
<glyph unicode="0" d="M92 243v948q0 101 71 172t172 71h764q101 0 172 -71t71 -172v-948q0 -101 -71 -172t-172 -71h-764q-101 0 -172 71t-71 172zM224 245l904 1053q-14 4 -29 4h-764q-46 0 -78 -33q-33 -32 -33 -78v-946zM306 136q14 -4 29 -4h764q46 0 78 33q33 32 33 78v946z" />
<glyph unicode="1" horiz-adv-x="409" d="M89 1302v132q100 0 172 -71q71 -71 71 -172v-1191h-133v1191q0 46 -32 78q-32 33 -78 33z" />
<glyph unicode="2" horiz-adv-x="1337" d="M95 77q-27 76 67 151l841 670q46 36 80 106q33 71 33 128v59q0 46 -32 78q-32 33 -78 33h-632q-45 0 -78 -25q-33 -26 -33 -60v-151h-132v151q0 90 71 153q71 64 172 64h632q101 0 172 -71t71 -172v-59q0 -87 -47 -185q-48 -98 -116 -153l-832 -662h995v-132h-1008 q-119 0 -146 77z" />
<glyph unicode="3" horiz-adv-x="1280" d="M87 0v132h873q46 0 78 33q33 32 33 78v298q0 45 -33 77q-32 33 -78 33h-741v132h741q46 0 78 33q33 32 33 77v298q0 46 -33 78q-32 33 -78 33h-873v132h873q101 0 172 -71t71 -172v-298q0 -104 -77 -176q77 -72 77 -176v-298q0 -101 -71 -172t-172 -71h-873z" />
<glyph unicode="4" horiz-adv-x="1181" d="M89 695v739h132v-607h750v607h133v-1434h-133v695h-882z" />
<glyph unicode="5" horiz-adv-x="1414" d="M87 938v496h1191v-132h-1059v-364q0 -49 35 -88q35 -40 83 -46l768 -101q96 -13 164 -91q68 -77 68 -174v-195q0 -101 -71 -172t-172 -71h-705q-101 0 -172 64q-71 63 -71 153v151h132v-151q0 -34 33 -60q33 -25 78 -25h705q46 0 78 33q33 32 33 78v195q0 48 -35 87 q-35 40 -83 46l-767 101q-97 13 -165 91t-68 175z" />
<glyph unicode="6" d="M92 243v949q0 101 71 172t172 71h767v-132h-767q-46 0 -78 -33q-33 -32 -33 -78v-435q53 27 111 27h765q101 0 172 -71q71 -72 71 -172v-298q0 -101 -71 -172t-172 -71h-765q-101 0 -172 71t-71 172zM224 243q0 -46 33 -78q32 -33 78 -33h765q46 0 78 33q33 32 33 78v298 q0 46 -33 78q-32 32 -78 32h-765q-46 0 -78 -32q-33 -32 -33 -78v-298z" />
<glyph unicode="7" d="M93 1066v151q0 90 71 153q71 64 172 64h764q101 0 172 -71t71 -172v-59q0 -83 -35 -187q-34 -103 -85 -170l-346 -456q-37 -49 -65 -132q-28 -82 -28 -143v-44h-132v44q0 83 35 185q34 103 85 170l346 456q37 49 65 133q28 83 28 144v59q0 46 -33 78q-32 33 -78 33h-764 q-45 0 -78 -25q-33 -26 -33 -60v-151h-132z" />
<glyph unicode="8" horiz-adv-x="1425" d="M90 243v298q0 104 77 176q-77 72 -77 176v298q0 101 71 172t172 71h764q101 0 172 -71t71 -172v-298q0 -104 -76 -176q76 -72 76 -176v-298q0 -101 -71 -172t-172 -71h-764q-101 0 -172 71t-71 172zM222 243q0 -46 33 -78q32 -33 78 -33h764q46 0 78 33q33 32 33 78v298 q0 45 -33 77q-32 33 -78 33h-764q-46 0 -78 -33q-33 -32 -33 -77v-298zM222 893q0 -45 33 -77q32 -33 78 -33h764q46 0 78 33q33 32 33 77v298q0 46 -33 78q-32 33 -78 33h-764q-46 0 -78 -33q-33 -32 -33 -78v-298z" />
<glyph unicode="9" d="M92 894v298q0 101 71 172t172 71h765q101 0 172 -71t71 -172v-949q0 -101 -71 -172t-172 -71h-767v132h767q46 0 78 33q33 32 33 78v435q-53 -27 -111 -27h-765q-101 0 -172 71q-71 72 -71 172zM224 894q0 -46 33 -78q32 -32 78 -32h765q46 0 78 32q33 32 33 78v298 q0 46 -33 78q-32 33 -78 33h-765q-46 0 -78 -33q-33 -32 -33 -78v-298z" />
<glyph unicode=":" horiz-adv-x="297" d="M80 -30v227h132v-227h-132zM80 603v228h132v-228h-132z" />
<glyph unicode=";" horiz-adv-x="290" d="M80 197h132v-373h-61zM80 603v228h132v-228h-132z" />
<glyph unicode="&#x3c;" horiz-adv-x="1014" />
<glyph unicode="=" horiz-adv-x="1014" />
<glyph unicode="&#x3e;" horiz-adv-x="1014" />
<glyph unicode="?" horiz-adv-x="1492" d="M90 1068v158q0 95 75 161q74 67 180 67h802q105 0 179 -63q75 -64 75 -153q0 -186 -192 -302l-269 -163q-125 -75 -125 -221v-159h-139v159q0 224 192 340l269 163q125 76 125 183q0 29 -32 52q-34 25 -83 25h-802q-48 0 -82 -26t-34 -63v-158h-139zM676 -30h139v227 h-139v-227z" />
<glyph unicode="@" horiz-adv-x="1706" d="M107 847q59 312 321 492q262 179 574 120q311 -58 491 -320q179 -262 121 -574q-34 -178 -142 -321q-96 -147 -232 -98q-121 43 -100 231q-51 -22 -102 -22h-428q-103 0 -168 74t-52 176l29 236q12 96 90 164q77 69 174 69h428q103 0 168 -74t53 -176l-25 -198l-1 -3 l-4 -34q0 1 0 -2l-23 -181q-30 -123 6 -136q38 -13 77 47l3 5q91 119 119 268q48 257 -101 474q-148 217 -406 265q-258 49 -474 -100q-217 -148 -265 -406q-49 -258 100 -475q148 -216 406 -265q159 -29 311 20l63 20l41 -126l-63 -20q-114 -37 -235 -37q-71 0 -141 13 q-312 59 -492 320q-179 262 -121 574zM521 589q-5 -43 20 -72q26 -29 69 -29h428q118 0 133 117l29 236q6 42 -20 71t-69 29h-428q-118 0 -133 -117z" />
<glyph unicode="A" d="M94 0v1191q0 101 71 172t172 71h764q101 0 172 -71t71 -172v-1191h-132v463h-986v-463h-132zM226 596h986v595q0 46 -33 78q-32 33 -78 33h-764q-46 0 -78 -33q-33 -32 -33 -78v-595z" />
<glyph unicode="B" d="M92 0v1434h1007q101 0 172 -71t71 -172v-485q0 -104 -76 -177q76 -72 76 -176v-110q0 -101 -71 -172t-172 -71h-1007zM224 132h875q46 0 78 33q33 32 33 78v110q0 46 -33 78q-32 32 -78 32h-875v-331zM224 596h875q46 0 78 32q33 32 33 78v485q0 46 -33 78q-32 33 -78 33 h-875v-706z" />
<glyph unicode="C" d="M93 243v948q0 101 71 172t172 71h764q101 0 172 -64q71 -63 71 -153v-151h-132v151q0 34 -33 60q-33 25 -78 25h-764q-46 0 -78 -33q-33 -32 -33 -78v-948q0 -46 33 -78q32 -33 78 -33h764q45 0 78 25q33 26 33 60v151h132v-151q0 -90 -71 -153q-71 -64 -172 -64h-764 q-101 0 -172 71t-71 172z" />
<glyph unicode="D" d="M92 0v1434h1007q101 0 172 -71t71 -172v-948q0 -101 -71 -172t-172 -71h-1007zM224 132h875q46 0 78 33q33 32 33 78v948q0 46 -33 78q-32 33 -78 33h-875v-1170z" />
<glyph unicode="E" horiz-adv-x="1520" d="M90 0v1435h1352v-132h-1220v-707h1088v-132h-1088v-332h1220v-132h-1352z" />
<glyph unicode="F" horiz-adv-x="1436" d="M90 0v1435h1352v-132h-1220v-707h1088v-132h-1088v-464h-132z" />
<glyph unicode="G" horiz-adv-x="1414" d="M87 243v948q0 101 71 172t172 71h764q101 0 172 -64q71 -63 71 -153v-151h-132v151q0 34 -33 60q-33 25 -78 25h-764q-46 0 -78 -33q-33 -32 -33 -78v-948q0 -46 33 -78q32 -33 78 -33h764q46 0 78 33q33 32 33 78v220h-244v133h376v-353q0 -101 -71 -172t-172 -71h-764 q-101 0 -172 71t-71 172z" />
<glyph unicode="H" horiz-adv-x="1407" d="M82 0v1434h132v-838h986v838h132v-1434h-132v463h-986v-463h-132z" />
<glyph unicode="I" horiz-adv-x="304" d="M90 0v1434h132v-1434h-132z" />
<glyph unicode="J" d="M93 226v160h132v-160q0 -38 33 -66t78 -28h764q46 0 78 33q33 32 33 78v1059h-244v132h376v-1191q0 -101 -71 -172t-172 -71h-764q-101 0 -172 66q-71 67 -71 160z" />
<glyph unicode="K" horiz-adv-x="1308" d="M88 0v1434h132v-651h336l549 651h173l-605 -717l605 -717h-173l-549 651h-336v-651h-132z" />
<glyph unicode="L" d="M92 0v1434h132v-1302h875q45 0 78 25q33 26 33 60v151h132v-151q0 -90 -71 -153q-71 -64 -172 -64h-1007z" />
<glyph unicode="M" horiz-adv-x="1916" d="M91 0v1287q0 123 75 144q12 3 24 3q61 0 114 -89l659 -1106l659 1106q53 89 114 89q12 0 24 -3q75 -21 75 -144v-1287h-132v1223l-740 -1250l-740 1250v-1223h-132z" />
<glyph unicode="N" horiz-adv-x="1428" d="M91 0v1280q0 120 76 146q16 6 33 6q60 0 117 -76l904 -1183v1261h132v-1280q0 -120 -76 -146q-16 -5 -32 -5q-60 0 -118 75l-904 1183v-1261h-132z" />
<glyph unicode="O" d="M89 243v948q0 101 71 172t172 71h764q101 0 172 -71t71 -172v-948q0 -101 -71 -172t-172 -71h-764q-101 0 -172 71t-71 172zM221 243q0 -46 33 -78q32 -33 78 -33h764q46 0 78 33q33 32 33 78v948q0 46 -33 78q-32 33 -78 33h-764q-46 0 -78 -33q-33 -32 -33 -78v-948z " />
<glyph unicode="P" horiz-adv-x="1372" d="M93 0v1434h1007q101 0 172 -71t71 -172v-485q0 -100 -71 -172q-71 -71 -172 -71h-875v-463h-132zM225 596h875q46 0 78 32q33 32 33 78v485q0 46 -33 78q-32 33 -78 33h-875v-706z" />
<glyph unicode="Q" horiz-adv-x="1414" d="M89 243v948q0 101 71 172t172 71h764q101 0 172 -71t71 -172v-948q0 -101 -71 -172t-172 -71h-764q-101 0 -172 71t-71 172zM221 243q0 -46 33 -78q32 -33 78 -33h764q37 0 67 23l-399 267l74 110l369 -247v906q0 46 -33 78q-32 33 -78 33h-764q-46 0 -78 -33 q-33 -32 -33 -78v-948z" />
<glyph unicode="R" horiz-adv-x="1429" d="M92 0v1434h1007q101 0 172 -71t71 -172v-485q0 -100 -71 -172q-71 -71 -172 -71h-224l487 -463h-192l-487 463h-459v-463h-132zM224 596h875q46 0 78 32q33 32 33 78v485q0 46 -33 78q-32 33 -78 33h-875v-706z" />
<glyph unicode="S" horiz-adv-x="1414" d="M93 217v151h132v-151q0 -34 33 -60q33 -25 78 -25h764q46 0 78 33q33 32 33 78v66q0 53 -37 108t-85 76l-793 333q-85 36 -144 125t-59 181v59q0 101 71 172t172 71h764q101 0 172 -64q71 -63 71 -153v-151h-132v151q0 34 -33 60q-33 25 -78 25h-764q-46 0 -78 -33 q-33 -32 -33 -78v-59q0 -52 37 -108q37 -55 86 -76l792 -333q85 -36 144 -125q59 -88 59 -181v-66q0 -101 -71 -172t-172 -71h-764q-101 0 -172 64q-71 63 -71 153z" />
<glyph unicode="T" horiz-adv-x="1549" d="M50 1303v132h1446v-132h-657v-1303h-132v1303h-657z" />
<glyph unicode="U" horiz-adv-x="1414" d="M87 243v1191h132v-1191q0 -46 33 -78q32 -33 78 -33h764q46 0 78 33q33 32 33 78v1191h132v-1191q0 -101 -71 -172t-172 -71h-764q-101 0 -172 71t-71 172z" />
<glyph unicode="V" horiz-adv-x="1535" d="M15 1434h149l613 -1274q8 -15 16 -24q7 9 15 24l582 1274h145l-607 -1329q-48 -104 -134 -105h-1q-86 0 -135 103z" />
<glyph unicode="W" horiz-adv-x="2545" d="M11 1434h145l552 -1275q4 -9 8 -16q4 7 8 16l555 1340l578 -1340q4 -9 8 -16q4 7 8 16l525 1275h142l-545 -1325q-44 -108 -128 -109h-1q-84 0 -130 106l-457 1055l-433 -1052q-44 -108 -129 -109h-1q-83 0 -129 106z" />
<glyph unicode="X" horiz-adv-x="1245" d="M0 0v114q0 64 40 149q40 86 99 149l302 319q5 6 14 14l-302 272q-65 59 -109 143q-44 83 -44 149v125h132v-125q0 -35 32 -92q32 -61 78 -101l311 -281q25 -23 60 -29q14 0 29 -2q48 2 80 33l288 274q45 42 77 104q31 58 31 94v125h132v-125q0 -65 -42 -150 q-43 -84 -106 -144l-289 -274q-9 -9 -19 -17l312 -314q62 -62 103 -147q41 -84 41 -149v-114h-132v114q0 36 -30 96q-32 63 -75 106l-325 327q-23 23 -54 29q-12 0 -26 1q-42 -2 -71 -32l-302 -320q-42 -45 -73 -110q-30 -61 -30 -97v-114h-132z" />
<glyph unicode="Y" horiz-adv-x="1252" d="M1 1310v125h132v-125q0 -35 32 -93q33 -60 78 -101l311 -281q35 -31 85 -31q51 1 85 33l288 275q44 42 77 104q31 58 31 94v125h132v-125q0 -66 -43 -150q-42 -84 -106 -144l-288 -275q-51 -48 -122 -63v-678h-133v684q-54 16 -94 53l-312 281q-65 59 -109 142 q-44 84 -44 150z" />
<glyph unicode="Z" horiz-adv-x="1280" d="M92 1302v132h934q115 0 151 -78q11 -25 11 -51q0 -55 -51 -114l-887 -1034q-11 -12 -16 -22q11 -3 27 -3h934v-132h-934q-115 0 -151 78q-12 25 -12 52q0 55 51 113l888 1034q10 12 15 22q-11 3 -26 3h-934z" />
<glyph unicode="[" horiz-adv-x="758" />
<glyph unicode="\" horiz-adv-x="1004" d="M58 1434h147l749 -1892h-147z" />
<glyph unicode="]" horiz-adv-x="758" />
<glyph unicode="^" horiz-adv-x="813" d="M92 1105l325 318l309 -318h-187l-122 131l-146 -131h-179z" />
<glyph unicode="_" horiz-adv-x="1139" d="M90 -44h971v-132h-971v132z" />
<glyph unicode="`" horiz-adv-x="453" d="M94 1437h174l89 -332h-108z" />
<glyph unicode="a" horiz-adv-x="1420" d="M90 243v67q0 101 71 172t172 71h875v175q0 46 -32 78q-33 33 -78 33h-885v132h885q100 0 171 -71q72 -71 72 -172v-728h-1008q-101 0 -172 71t-71 172zM222 243q0 -46 33 -78q32 -33 78 -33h875v289h-875q-46 0 -78 -33q-33 -32 -33 -78v-67z" />
<glyph unicode="b" horiz-adv-x="1414" d="M92 243v1191h132v-476q35 13 70 13h805q101 0 172 -71q71 -72 71 -172v-485q0 -101 -71 -172t-172 -71h-764q-101 0 -172 71t-71 172zM224 243q0 -46 33 -78q32 -33 78 -33h764q46 0 78 33q33 32 33 78v485q0 46 -33 78q-32 32 -78 32h-805q-29 0 -49 -22 q-21 -22 -21 -53v-520z" />
<glyph unicode="c" d="M93 243v480q0 100 71 172q71 71 172 71h764q101 0 172 -64q71 -63 71 -153v-151h-132v151q0 34 -33 59t-78 25h-764q-46 0 -78 -32q-33 -32 -33 -78v-480q0 -46 33 -78q32 -33 78 -33h764q45 0 78 25q33 26 33 60v151h132v-151q0 -90 -71 -153q-71 -64 -172 -64h-764 q-101 0 -172 71t-71 172z" />
<glyph unicode="d" horiz-adv-x="1429" d="M92 243v485q0 100 71 172q71 71 172 71h805q35 0 70 -13v476h132v-1191q0 -101 -71 -172t-172 -71h-764q-101 0 -172 71t-71 172zM224 243q0 -46 33 -78q32 -33 78 -33h764q46 0 78 33q33 32 33 78v520q0 31 -21 53q-20 22 -49 22h-805q-46 0 -78 -32q-33 -32 -33 -78 v-485z" />
<glyph unicode="e" horiz-adv-x="1429" d="M92 243v481q0 100 71 171q71 72 172 72h765q101 0 172 -72q71 -71 71 -171v-304h-1119v-177q0 -46 33 -78q32 -33 78 -33h859v-132h-859q-101 0 -172 71t-71 172zM224 552h987v172q0 45 -33 78q-32 32 -78 32h-765q-46 0 -78 -32q-33 -33 -33 -78v-172z" />
<glyph unicode="f" horiz-adv-x="884" d="M91 0v1192q0 100 71 171t172 71h466v-132h-466q-46 0 -78 -33q-33 -32 -33 -77v-638h577v-132h-577v-422h-132z" />
<glyph unicode="g" horiz-adv-x="1414" d="M89 238v486q0 100 71 171q71 72 172 72h765q101 0 172 -72q71 -71 71 -171v-1092q0 -85 -71 -146q-71 -60 -172 -60h-782v132h782q47 0 80 24q31 22 31 50v390q-53 -27 -111 -27h-765q-101 0 -172 71q-71 72 -71 172zM221 238q0 -46 33 -78q32 -32 78 -32h765q46 0 78 32 q33 32 33 78v486q0 45 -33 78q-32 32 -78 32h-765q-46 0 -78 -32q-33 -33 -33 -78v-486z" />
<glyph unicode="h" d="M87 0v1434h132v-490q53 27 111 27h764q101 0 172 -71q71 -72 71 -172v-728h-132v728q0 46 -33 78q-32 32 -78 32h-764q-46 0 -78 -32q-33 -32 -33 -78v-728h-132z" />
<glyph unicode="i" horiz-adv-x="277" d="M80 0v971h132v-971h-132zM80 1207v227h132v-227h-132z" />
<glyph unicode="j" horiz-adv-x="294" d="M-329 -442h299q46 0 78 33q32 32 32 78v1296h133v-1296q0 -101 -72 -172q-71 -71 -171 -71h-299v132zM80 1207v227h133v-227h-133z" />
<glyph unicode="k" horiz-adv-x="1167" d="M90 0v1434h132v-880h336l351 417h174l-408 -483l412 -488h-173l-356 422h-336v-422h-132z" />
<glyph unicode="l" horiz-adv-x="297" d="M90 0v1434h132v-1434h-132z" />
<glyph unicode="m" horiz-adv-x="2177" d="M95 0v728q0 100 71 172q71 71 172 71h583q104 0 176 -77q72 77 177 77h583q100 0 171 -71q71 -72 71 -172v-728h-132v728q0 46 -33 78q-32 32 -77 32h-583q-46 0 -78 -32q-33 -32 -33 -78v-728h-132v728q0 46 -32 78q-33 32 -78 32h-583q-46 0 -78 -32q-33 -32 -33 -78 v-728h-132z" />
<glyph unicode="n" d="M92 0v728q0 100 71 172q71 71 172 71h765q100 0 171 -71q71 -72 71 -172v-728h-132v728q0 46 -32 78q-33 32 -78 32h-765q-46 0 -78 -32q-33 -32 -33 -78v-728h-132z" />
<glyph unicode="o" horiz-adv-x="1431" d="M90 243v485q0 101 71 172t172 71h765q100 0 171 -71t71 -172v-485q0 -101 -71 -172t-171 -71h-765q-101 0 -172 71t-71 172zM222 243q0 -46 33 -78q32 -33 78 -33h765q45 0 78 33q32 32 32 78v485q0 46 -32 78q-33 33 -78 33h-765q-46 0 -78 -33q-33 -32 -33 -78v-485z " />
<glyph unicode="p" horiz-adv-x="1414" d="M90 -576v1296q0 101 71 172t172 71h764q101 0 172 -71t71 -172v-485q0 -100 -71 -171t-172 -71h-764q-58 0 -111 26v-595h-132zM222 235q0 -45 33 -78q32 -32 78 -32h764q46 0 78 32q33 33 33 78v485q0 46 -33 78q-32 33 -78 33h-764q-46 0 -78 -33q-33 -32 -33 -78v-485 z" />
<glyph unicode="q" horiz-adv-x="1429" d="M90 235v485q0 101 71 172t172 71h764q101 0 172 -71t71 -172v-1296h-132v595q-53 -26 -111 -26h-764q-101 0 -172 71t-71 171zM222 235q0 -45 33 -78q32 -32 78 -32h764q46 0 78 32q33 33 33 78v485q0 46 -33 78q-32 33 -78 33h-764q-46 0 -78 -33q-33 -32 -33 -78v-485z " />
<glyph unicode="r" horiz-adv-x="1429" d="M86 0v971h1008q100 0 171 -64q71 -63 71 -153v-151h-132v151q0 34 -33 59q-32 26 -77 26h-876v-839h-132z" />
<glyph unicode="s" horiz-adv-x="1429" d="M92 213v146h132v-146q0 -33 33 -57t78 -24h765q44 0 77 26t33 62q0 40 -36 77t-84 47l-772 155q-95 20 -160 92q-66 72 -66 158q0 90 71 153q71 64 172 64h765q100 0 171 -62q71 -63 71 -151v-147h-132v147q0 33 -33 57t-77 24h-765q-45 0 -78 -25t-33 -60q0 -38 36 -74 t84 -46l772 -155q95 -20 161 -93q65 -73 65 -161q0 -91 -71 -155q-71 -65 -171 -65h-765q-101 0 -172 62q-71 63 -71 151z" />
<glyph unicode="t" horiz-adv-x="1436" d="M93 874v139h563v422h139v-422h563v-139h-563v-874h-139v874h-563z" />
<glyph unicode="u" d="M92 243v728h132v-728q0 -46 33 -78q32 -33 78 -33h765q45 0 78 33q32 32 32 78v728h132v-728q0 -101 -71 -172t-171 -71h-765q-101 0 -172 71t-71 172z" />
<glyph unicode="v" horiz-adv-x="1267" d="M52 971h150l426 -810q12 -22 22 -28q11 7 22 28l404 810h148l-434 -869q-50 -101 -138 -102h-2q-86 0 -139 99z" />
<glyph unicode="w" horiz-adv-x="2192" d="M60 970h147l385 -810q7 -15 14 -23q7 9 14 23l483 869l503 -869q7 -15 15 -23q7 9 14 23l365 810h145l-390 -864q-47 -105 -133 -106h-1q-85 0 -134 103l-384 673l-362 -670q-48 -105 -134 -106h-1q-85 0 -134 103z" />
<glyph unicode="x" horiz-adv-x="1291" d="M47 973h147q31 -52 71 -88l312 -281q24 -22 60 -28q13 -1 28 -2q48 2 81 32l288 274q40 38 70 93h147q-43 -109 -126 -188l-288 -275q-9 -8 -20 -16l313 -315q75 -75 117 -179h-147q-29 51 -64 86l-325 326q-23 23 -54 29q-12 0 -26 2q-41 -2 -70 -33l-302 -319 q-35 -38 -64 -91h-146q41 104 114 181l301 320q5 5 14 13l-302 273q-85 77 -129 186z" />
<glyph unicode="y" horiz-adv-x="1429" d="M92 238v729h132v-729q0 -46 33 -78q32 -32 78 -32h765q46 0 78 32q33 32 33 78v729h132v-1335q0 -85 -71 -146q-71 -60 -172 -60h-782v132h782q47 0 80 24q31 22 31 50v390q-53 -27 -111 -27h-765q-101 0 -172 71q-71 72 -71 172z" />
<glyph unicode="z" horiz-adv-x="1238" d="M93 77q-5 16 -5 31q0 60 77 118l816 611h-845v133h868q120 0 146 -76q5 -16 5 -31q0 -60 -77 -118l-816 -612h845v-133h-868q-120 0 -146 77z" />
<glyph unicode="{" horiz-adv-x="1014" />
<glyph unicode="|" horiz-adv-x="1014" />
<glyph unicode="}" horiz-adv-x="1014" />
<glyph unicode="~" horiz-adv-x="743" d="M89 1145q-1 35 19 69q25 44 77 64q88 33 213 -39q85 -49 129 -33q33 13 33 39l98 2q1 -35 -18 -69q-26 -45 -78 -64q-24 -9 -53 -9q-77 0 -160 48q-85 49 -129 32q-32 -12 -33 -40h-98z" />
<glyph unicode="&#xa1;" horiz-adv-x="283" d="M60 -30l20 1061h132l20 -1061h-172zM80 1227v227h132v-227h-132z" />
<glyph unicode="&#xa2;" horiz-adv-x="1139" />
<glyph unicode="&#xa3;" horiz-adv-x="1014" />
<glyph unicode="&#xa4;" horiz-adv-x="1014" />
<glyph unicode="&#xa5;" horiz-adv-x="1407" d="M87 1309v125h132v-125q0 -35 32 -92q32 -61 78 -101l311 -281q35 -32 85 -31t84 33l288 274q45 42 77 104q31 58 31 94v125h132v-125q0 -65 -42 -150q-43 -84 -106 -144l-289 -274q-42 -40 -99 -57h413v-133h-436v-67h436v-132h-436v-352h-132v352h-436v132h436v67h-436 v133h435q-54 16 -94 52l-311 281q-65 59 -109 143q-44 83 -44 149z" />
<glyph unicode="&#xa6;" horiz-adv-x="1014" />
<glyph unicode="&#xa7;" horiz-adv-x="1014" />
<glyph unicode="&#xa8;" horiz-adv-x="523" d="M93 1105v227h132v-227h-132zM291 1105v227h132v-227h-132z" />
<glyph unicode="&#xa9;" horiz-adv-x="1674" />
<glyph unicode="&#xaa;" horiz-adv-x="648" />
<glyph unicode="&#xab;" horiz-adv-x="944" />
<glyph unicode="&#xac;" horiz-adv-x="1014" />
<glyph unicode="&#xad;" horiz-adv-x="1153" d="M90 651v132h971v-132h-971z" />
<glyph unicode="&#xae;" horiz-adv-x="1674" />
<glyph unicode="&#xaf;" horiz-adv-x="670" />
<glyph unicode="&#xb0;" horiz-adv-x="674" />
<glyph unicode="&#xb1;" horiz-adv-x="1014" />
<glyph unicode="&#xb2;" horiz-adv-x="1014" />
<glyph unicode="&#xb3;" horiz-adv-x="1014" />
<glyph unicode="&#xb4;" horiz-adv-x="446" d="M94 1105l88 332h175l-155 -332h-108z" />
<glyph unicode="&#xb5;" horiz-adv-x="1180" />
<glyph unicode="&#xb6;" horiz-adv-x="1024" />
<glyph unicode="&#xb7;" horiz-adv-x="508" />
<glyph unicode="&#xb8;" horiz-adv-x="1024" />
<glyph unicode="&#xb9;" horiz-adv-x="1014" />
<glyph unicode="&#xba;" horiz-adv-x="718" />
<glyph unicode="&#xbb;" horiz-adv-x="944" />
<glyph unicode="&#xbc;" horiz-adv-x="1708" />
<glyph unicode="&#xbd;" horiz-adv-x="1964" />
<glyph unicode="&#xbe;" horiz-adv-x="1708" />
<glyph unicode="&#xbf;" horiz-adv-x="1492" d="M90 186q0 186 192 302l269 163q125 75 125 221v159h139v-159q0 -224 -192 -340l-269 -163q-125 -76 -125 -183q0 -29 32 -52q35 -25 84 -25h802q47 0 81 26t34 62v159h139v-159q0 -94 -75 -160q-74 -67 -179 -67h-802q-106 0 -180 63q-75 64 -75 153zM676 1227v227h139 v-227h-139z" />
<glyph unicode="&#xc0;" horiz-adv-x="1429" d="M94 0v1191q0 101 71 172t172 71h764q101 0 172 -71t71 -172v-1191h-132v463h-986v-463h-132zM226 596h986v595q0 46 -33 78q-32 33 -78 33h-764q-46 0 -78 -33q-33 -32 -33 -78v-595zM516 1840h174l89 -332h-108z" />
<glyph unicode="&#xc1;" d="M94 0v1191q0 101 71 172t172 71h764q101 0 172 -71t71 -172v-1191h-132v463h-986v-463h-132zM226 596h986v595q0 46 -33 78q-32 33 -78 33h-764q-46 0 -78 -33q-33 -32 -33 -78v-595zM679 1508l88 332h175l-155 -332h-108z" />
<glyph unicode="&#xc2;" d="M94 0h132v463h986v-463h132v1191q0 101 -71 172t-172 71h-764q-101 0 -172 -71t-71 -172v-1191zM226 596v595q0 46 33 78q32 33 78 33h764q46 0 78 -33q33 -32 33 -78v-595h-986zM402 1508l325 318l309 -318h-186l-123 131l-146 -131h-179z" />
<glyph unicode="&#xc3;" d="M94 0h132v463h986v-463h132v1191q0 101 -71 172t-172 71h-764q-101 0 -172 -71t-71 -172v-1191zM226 596v595q0 46 33 78q32 33 78 33h764q46 0 78 -33q33 -32 33 -78v-595h-986zM434 1548q0 35 19 69q26 44 78 64q87 33 213 -39q85 -49 129 -33q32 13 32 39l99 2 q1 -35 -19 -69q-26 -45 -78 -64q-24 -9 -53 -9q-76 0 -160 48q-85 49 -128 32q-32 -12 -33 -40h-99z" />
<glyph unicode="&#xc4;" horiz-adv-x="1436" d="M94 0v1191q0 101 71 172t172 71h764q101 0 172 -71t71 -172v-1191h-132v463h-986v-463h-132zM226 596h986v595q0 46 -33 78q-32 33 -78 33h-764q-46 0 -78 -33q-33 -32 -33 -78v-595zM554 1508v227h133v-227h-133zM752 1508v227h132v-227h-132z" />
<glyph unicode="&#xc5;" horiz-adv-x="1540" />
<glyph unicode="&#xc6;" horiz-adv-x="2118" />
<glyph unicode="&#xc7;" horiz-adv-x="1399" />
<glyph unicode="&#xc8;" horiz-adv-x="1528" d="M90 0v1435h1352v-132h-1220v-707h1088v-132h-1088v-332h1220v-132h-1352zM622 1840h174l89 -332h-108z" />
<glyph unicode="&#xc9;" horiz-adv-x="1528" d="M90 0v1435h1352v-132h-1220v-707h1088v-132h-1088v-332h1220v-132h-1352zM749 1508l88 332h175l-155 -332h-108z" />
<glyph unicode="&#xca;" horiz-adv-x="1528" d="M90 0h1352v132h-1220v332h1088v132h-1088v707h1220v132h-1352v-1435zM449 1508l325 318l309 -318h-186l-123 131l-146 -131h-179z" />
<glyph unicode="&#xcb;" horiz-adv-x="1528" d="M90 0v1435h1352v-132h-1220v-707h1088v-132h-1088v-332h1220v-132h-1352zM614 1508v227h133v-227h-133zM812 1508v227h132v-227h-132z" />
<glyph unicode="&#xcc;" horiz-adv-x="297" d="M-57 1840h174l89 -332h-108zM90 0v1434h132v-1434h-132z" />
<glyph unicode="&#xcd;" horiz-adv-x="304" d="M90 0v1434h132v-1434h-132zM106 1508l88 332h175l-155 -332h-108z" />
<glyph unicode="&#xce;" horiz-adv-x="311" d="M-156 1508l325 318l309 -318h-187l-122 131l-146 -131h-179zM95 0h132v1434h-132v-1434z" />
<glyph unicode="&#xcf;" horiz-adv-x="311" d="M-4 1508v227h132v-227h-132zM95 0v1434h132v-1434h-132zM194 1508v227h132v-227h-132z" />
<glyph unicode="&#xd0;" horiz-adv-x="1518" />
<glyph unicode="&#xd1;" horiz-adv-x="1436" d="M91 0v1280q0 120 76 146q77 26 150 -70l904 -1183v1261h132v-1280q0 -120 -76 -146q-77 -25 -150 70l-904 1183v-1261h-132zM437 1548q0 35 19 69q26 44 78 64q88 33 213 -39q85 -49 129 -33q32 13 32 39l99 2q1 -35 -19 -69q-26 -45 -78 -64q-23 -9 -53 -9 q-76 0 -159 48q-86 49 -129 32q-32 -12 -33 -40h-99z" />
<glyph unicode="&#xd2;" horiz-adv-x="1414" d="M89 243v948q0 101 71 172t172 71h764q101 0 172 -71t71 -172v-948q0 -101 -71 -172t-172 -71h-764q-101 0 -172 71t-71 172zM221 243q0 -46 33 -78q32 -33 78 -33h764q46 0 78 33q33 32 33 78v948q0 46 -33 78q-32 33 -78 33h-764q-46 0 -78 -33q-33 -32 -33 -78v-948z M516 1840h174l89 -332h-108z" />
<glyph unicode="&#xd3;" horiz-adv-x="1429" d="M89 243v948q0 101 71 172t172 71h764q101 0 172 -71t71 -172v-948q0 -101 -71 -172t-172 -71h-764q-101 0 -172 71t-71 172zM221 243q0 -46 33 -78q32 -33 78 -33h764q46 0 78 33q33 32 33 78v948q0 46 -33 78q-32 33 -78 33h-764q-46 0 -78 -33q-33 -32 -33 -78v-948z M679 1508l88 332h175l-155 -332h-108z" />
<glyph unicode="&#xd4;" horiz-adv-x="1414" d="M89 243v948q0 101 71 172t172 71h764q101 0 172 -71t71 -172v-948q0 -101 -71 -172t-172 -71h-764q-101 0 -172 71t-71 172zM221 243q0 -46 33 -78q32 -33 78 -33h764q46 0 78 33q33 32 33 78v948q0 46 -33 78q-32 33 -78 33h-764q-46 0 -78 -33q-33 -32 -33 -78v-948z M402 1508l325 318l309 -318h-186l-123 131l-146 -131h-179z" />
<glyph unicode="&#xd5;" d="M89 243v948q0 101 71 172t172 71h764q101 0 172 -71t71 -172v-948q0 -101 -71 -172t-172 -71h-764q-101 0 -172 71t-71 172zM221 243q0 -46 33 -78q32 -33 78 -33h764q46 0 78 33q33 32 33 78v948q0 46 -33 78q-32 33 -78 33h-764q-46 0 -78 -33q-33 -32 -33 -78v-948z M434 1548q0 35 19 69q26 44 78 64q87 33 213 -39q85 -49 129 -33q32 13 32 39l99 2q1 -35 -19 -69q-26 -45 -78 -64q-24 -9 -53 -9q-76 0 -160 48q-85 49 -128 32q-32 -12 -33 -40h-99z" />
<glyph unicode="&#xd6;" horiz-adv-x="1414" d="M89 243v948q0 101 71 172t172 71h764q101 0 172 -71t71 -172v-948q0 -101 -71 -172t-172 -71h-764q-101 0 -172 71t-71 172zM221 243q0 -46 33 -78q32 -33 78 -33h764q46 0 78 33q33 32 33 78v948q0 46 -33 78q-32 33 -78 33h-764q-46 0 -78 -33q-33 -32 -33 -78v-948z M554 1508v227h133v-227h-133zM752 1508v227h132v-227h-132z" />
<glyph unicode="&#xd7;" horiz-adv-x="1014" />
<glyph unicode="&#xd8;" horiz-adv-x="1614" />
<glyph unicode="&#xd9;" horiz-adv-x="1407" d="M87 243v1191h132v-1191q0 -46 33 -78q32 -33 78 -33h764q46 0 78 33q33 32 33 78v1191h132v-1191q0 -101 -71 -172t-172 -71h-764q-101 0 -172 71t-71 172zM516 1840h174l89 -332h-108z" />
<glyph unicode="&#xda;" horiz-adv-x="1414" d="M87 243v1191h132v-1191q0 -46 33 -78q32 -33 78 -33h764q46 0 78 33q33 32 33 78v1191h132v-1191q0 -101 -71 -172t-172 -71h-764q-101 0 -172 71t-71 172zM679 1508l88 332h175l-155 -332h-108z" />
<glyph unicode="&#xdb;" horiz-adv-x="1414" d="M87 243v1191h132v-1191q0 -46 33 -78q32 -33 78 -33h764q46 0 78 33q33 32 33 78v1191h132v-1191q0 -101 -71 -172t-172 -71h-764q-101 0 -172 71t-71 172zM402 1508l325 318l309 -318h-186l-123 131l-146 -131h-179z" />
<glyph unicode="&#xdc;" horiz-adv-x="1407" d="M87 243v1191h132v-1191q0 -46 33 -78q32 -33 78 -33h764q46 0 78 33q33 32 33 78v1191h132v-1191q0 -101 -71 -172t-172 -71h-764q-101 0 -172 71t-71 172zM554 1508v227h133v-227h-133zM752 1508v227h132v-227h-132z" />
<glyph unicode="&#xdd;" horiz-adv-x="1252" d="M1 1310v125h132v-125q0 -35 32 -93q33 -60 78 -101l311 -281q35 -31 85 -31q51 1 85 33l288 275q44 42 77 104q31 58 31 94v125h132v-125q0 -66 -43 -150q-42 -84 -106 -144l-288 -275q-51 -48 -122 -63v-678h-133v684q-54 16 -94 53l-312 281q-65 59 -109 142 q-44 84 -44 150zM586 1508l88 332h175l-155 -332h-108z" />
<glyph unicode="&#xde;" horiz-adv-x="1120" />
<glyph unicode="&#xdf;" horiz-adv-x="1251" />
<glyph unicode="&#xe0;" d="M90 243v67q0 101 71 172t172 71h875v175q0 46 -32 78q-33 33 -78 33h-885v132h885q100 0 171 -71q72 -71 72 -172v-728h-1008q-101 0 -172 71t-71 172zM222 243q0 -46 33 -78q32 -33 78 -33h875v289h-875q-46 0 -78 -33q-33 -32 -33 -78v-67zM584 1437h174l89 -332h-108z " />
<glyph unicode="&#xe1;" horiz-adv-x="1429" d="M90 243v67q0 101 71 172t172 71h875v175q0 46 -32 78q-33 33 -78 33h-885v132h885q100 0 171 -71q72 -71 72 -172v-728h-1008q-101 0 -172 71t-71 172zM222 243q0 -46 33 -78q32 -33 78 -33h875v289h-875q-46 0 -78 -33q-33 -32 -33 -78v-67zM705 1105l88 332h175 l-155 -332h-108z" />
<glyph unicode="&#xe2;" d="M90 243q0 -101 71 -172t172 -71h1008v728q0 101 -72 172q-71 71 -171 71h-885v-132h885q45 0 78 -33q32 -32 32 -78v-175h-875q-101 0 -172 -71t-71 -172v-67zM222 243v67q0 46 33 78q32 33 78 33h875v-289h-875q-46 0 -78 33q-33 32 -33 78zM398 1105l325 318l309 -318 h-186l-123 131l-146 -131h-179z" />
<glyph unicode="&#xe3;" d="M90 243q0 -101 71 -172t172 -71h1008v728q0 101 -72 172q-71 71 -171 71h-885v-132h885q45 0 78 -33q32 -32 32 -78v-175h-875q-101 0 -172 -71t-71 -172v-67zM222 243v67q0 46 33 78q32 33 78 33h875v-289h-875q-46 0 -78 33q-33 32 -33 78zM430 1145q0 35 19 69 q26 44 78 64q88 33 213 -39q85 -49 129 -33q32 13 32 39l99 2q1 -35 -19 -69q-26 -45 -78 -64q-23 -9 -53 -9q-76 0 -159 48q-86 49 -129 32q-32 -12 -33 -40h-99z" />
<glyph unicode="&#xe4;" d="M90 243v67q0 101 71 172t172 71h875v175q0 46 -32 78q-33 33 -78 33h-885v132h885q100 0 171 -71q72 -71 72 -172v-728h-1008q-101 0 -172 71t-71 172zM222 243q0 -46 33 -78q32 -33 78 -33h875v289h-875q-46 0 -78 -33q-33 -32 -33 -78v-67zM554 1105v227h133v-227h-133 zM752 1105v227h132v-227h-132z" />
<glyph unicode="&#xe5;" horiz-adv-x="922" />
<glyph unicode="&#xe6;" horiz-adv-x="1454" />
<glyph unicode="&#xe7;" horiz-adv-x="905" />
<glyph unicode="&#xe8;" horiz-adv-x="1429" d="M92 243v481q0 100 71 171q71 72 172 72h765q101 0 172 -72q71 -71 71 -171v-304h-1119v-177q0 -46 33 -78q32 -33 78 -33h859v-132h-859q-101 0 -172 71t-71 172zM224 552h987v172q0 45 -33 78q-32 32 -78 32h-765q-46 0 -78 -32q-33 -33 -33 -78v-172zM584 1437h174 l89 -332h-108z" />
<glyph unicode="&#xe9;" horiz-adv-x="1429" d="M92 243v481q0 100 71 171q71 72 172 72h765q101 0 172 -72q71 -71 71 -171v-304h-1119v-177q0 -46 33 -78q32 -33 78 -33h859v-132h-859q-101 0 -172 71t-71 172zM224 552h987v172q0 45 -33 78q-32 32 -78 32h-765q-46 0 -78 -32q-33 -33 -33 -78v-172zM705 1105l88 332 h175l-155 -332h-108z" />
<glyph unicode="&#xea;" d="M92 243q0 -101 71 -172t172 -71h859v132h-859q-46 0 -78 33q-33 32 -33 78v177h1119v304q0 100 -71 171q-71 72 -172 72h-765q-101 0 -172 -72q-71 -71 -71 -171v-481zM224 552v172q0 45 33 78q32 32 78 32h765q46 0 78 -32q33 -33 33 -78v-172h-987zM398 1105l325 318 l309 -318h-186l-123 131l-146 -131h-179z" />
<glyph unicode="&#xeb;" d="M92 243v481q0 100 71 171q71 72 172 72h765q101 0 172 -72q71 -71 71 -171v-304h-1119v-177q0 -46 33 -78q32 -33 78 -33h859v-132h-859q-101 0 -172 71t-71 172zM224 552h987v172q0 45 -33 78q-32 32 -78 32h-765q-46 0 -78 -32q-33 -33 -33 -78v-172zM554 1105v227h133 v-227h-133zM752 1105v227h132v-227h-132z" />
<glyph unicode="&#xec;" horiz-adv-x="283" d="M-66 1437h174l89 -332h-108zM80 0v971h132v-971h-132z" />
<glyph unicode="&#xed;" horiz-adv-x="283" d="M80 0v971h132v-971h-132zM104 1105l88 332h175l-155 -332h-108z" />
<glyph unicode="&#xee;" horiz-adv-x="290" d="M-175 1105l325 318l309 -318h-187l-122 131l-146 -131h-179zM80 0h132v971h-132v-971z" />
<glyph unicode="&#xef;" horiz-adv-x="290" d="M-18 1105v227h132v-227h-132zM80 0v971h132v-971h-132zM180 1105v227h132v-227h-132z" />
<glyph unicode="&#xf0;" horiz-adv-x="1139" />
<glyph unicode="&#xf1;" d="M92 0v728q0 100 71 172q71 71 172 71h765q100 0 171 -71q71 -72 71 -172v-728h-132v728q0 46 -32 78q-33 32 -78 32h-765q-46 0 -78 -32q-33 -32 -33 -78v-728h-132zM430 1145q0 35 19 69q26 44 78 64q88 33 213 -39q85 -49 129 -33q32 13 32 39l99 2q1 -35 -19 -69 q-26 -45 -78 -64q-23 -9 -53 -9q-76 0 -159 48q-86 49 -129 32q-32 -12 -33 -40h-99z" />
<glyph unicode="&#xf2;" d="M90 243v485q0 101 71 172t172 71h765q100 0 171 -71t71 -172v-485q0 -101 -71 -172t-171 -71h-765q-101 0 -172 71t-71 172zM222 243q0 -46 33 -78q32 -33 78 -33h765q45 0 78 33q32 32 32 78v485q0 46 -32 78q-33 33 -78 33h-765q-46 0 -78 -33q-33 -32 -33 -78v-485z M584 1437h174l89 -332h-108z" />
<glyph unicode="&#xf3;" horiz-adv-x="1414" d="M90 243v485q0 101 71 172t172 71h765q100 0 171 -71t71 -172v-485q0 -101 -71 -172t-171 -71h-765q-101 0 -172 71t-71 172zM222 243q0 -46 33 -78q32 -33 78 -33h765q45 0 78 33q32 32 32 78v485q0 46 -32 78q-33 33 -78 33h-765q-46 0 -78 -33q-33 -32 -33 -78v-485z M705 1105l88 332h175l-155 -332h-108z" />
<glyph unicode="&#xf4;" horiz-adv-x="1414" d="M90 243v485q0 101 71 172t172 71h765q100 0 171 -71t71 -172v-485q0 -101 -71 -172t-171 -71h-765q-101 0 -172 71t-71 172zM222 243q0 -46 33 -78q32 -33 78 -33h765q45 0 78 33q32 32 32 78v485q0 46 -32 78q-33 33 -78 33h-765q-46 0 -78 -33q-33 -32 -33 -78v-485z M398 1105l325 318l309 -318h-186l-123 131l-146 -131h-179z" />
<glyph unicode="&#xf5;" horiz-adv-x="1414" d="M90 243v485q0 101 71 172t172 71h765q100 0 171 -71t71 -172v-485q0 -101 -71 -172t-171 -71h-765q-101 0 -172 71t-71 172zM222 243q0 -46 33 -78q32 -33 78 -33h765q45 0 78 33q32 32 32 78v485q0 46 -32 78q-33 33 -78 33h-765q-46 0 -78 -33q-33 -32 -33 -78v-485z M430 1145q0 35 19 69q26 44 78 64q88 33 213 -39q85 -49 129 -33q32 13 32 39l99 2q1 -35 -19 -69q-26 -45 -78 -64q-23 -9 -53 -9q-76 0 -159 48q-86 49 -129 32q-32 -12 -33 -40h-99z" />
<glyph unicode="&#xf6;" horiz-adv-x="1414" d="M90 243v485q0 101 71 172t172 71h765q100 0 171 -71t71 -172v-485q0 -101 -71 -172t-171 -71h-765q-101 0 -172 71t-71 172zM222 243q0 -46 33 -78q32 -33 78 -33h765q45 0 78 33q32 32 32 78v485q0 46 -32 78q-33 33 -78 33h-765q-46 0 -78 -33q-33 -32 -33 -78v-485z M554 1105v227h133v-227h-133zM752 1105v227h132v-227h-132z" />
<glyph unicode="&#xf7;" horiz-adv-x="1014" />
<glyph unicode="&#xf8;" horiz-adv-x="1010" />
<glyph unicode="&#xf9;" d="M92 243v728h132v-728q0 -46 33 -78q32 -33 78 -33h765q45 0 78 33q32 32 32 78v728h132v-728q0 -101 -71 -172t-171 -71h-765q-101 0 -172 71t-71 172zM584 1437h174l89 -332h-108z" />
<glyph unicode="&#xfa;" d="M92 243v728h132v-728q0 -46 33 -78q32 -33 78 -33h765q45 0 78 33q32 32 32 78v728h132v-728q0 -101 -71 -172t-171 -71h-765q-101 0 -172 71t-71 172zM705 1105l88 332h175l-155 -332h-108z" />
<glyph unicode="&#xfb;" horiz-adv-x="1429" d="M92 243v728h132v-728q0 -46 33 -78q32 -33 78 -33h765q45 0 78 33q32 32 32 78v728h132v-728q0 -101 -71 -172t-171 -71h-765q-101 0 -172 71t-71 172zM398 1105l325 318l309 -318h-186l-123 131l-146 -131h-179z" />
<glyph unicode="&#xfc;" d="M92 243v728h132v-728q0 -46 33 -78q32 -33 78 -33h765q45 0 78 33q32 32 32 78v728h132v-728q0 -101 -71 -172t-171 -71h-765q-101 0 -172 71t-71 172zM554 1105v227h133v-227h-133zM752 1105v227h132v-227h-132z" />
<glyph unicode="&#xfd;" d="M92 238v729h132v-729q0 -46 33 -78q32 -32 78 -32h765q46 0 78 32q33 32 33 78v729h132v-1335q0 -85 -71 -146q-71 -60 -172 -60h-782v132h782q47 0 80 24q31 22 31 50v390q-53 -27 -111 -27h-765q-101 0 -172 71q-71 72 -71 172zM705 1105l88 332h175l-155 -332h-108z " />
<glyph unicode="&#xfe;" horiz-adv-x="1010" />
<glyph unicode="&#xff;" horiz-adv-x="1429" d="M92 238v729h132v-729q0 -46 33 -78q32 -32 78 -32h765q46 0 78 32q33 32 33 78v729h132v-1335q0 -85 -71 -146q-71 -60 -172 -60h-782v132h782q47 0 80 24q31 22 31 50v390q-53 -27 -111 -27h-765q-101 0 -172 71q-71 72 -71 172zM554 1105v227h133v-227h-133zM752 1105 v227h132v-227h-132z" />
<glyph unicode="&#x2c6;" horiz-adv-x="1024" />
<glyph unicode="&#x2dc;" horiz-adv-x="750" d="M89 1145q-1 35 19 69q25 44 77 64q88 33 213 -39q85 -49 129 -33q33 13 33 39l98 2q1 -35 -18 -69q-26 -45 -78 -64q-24 -9 -53 -9q-77 0 -160 48q-85 49 -129 32q-32 -12 -33 -40h-98z" />
<glyph unicode="&#x2000;" horiz-adv-x="920" />
<glyph unicode="&#x2001;" horiz-adv-x="1840" />
<glyph unicode="&#x2002;" horiz-adv-x="920" />
<glyph unicode="&#x2003;" horiz-adv-x="1840" />
<glyph unicode="&#x2004;" horiz-adv-x="613" />
<glyph unicode="&#x2005;" horiz-adv-x="460" />
<glyph unicode="&#x2006;" horiz-adv-x="306" />
<glyph unicode="&#x2007;" horiz-adv-x="306" />
<glyph unicode="&#x2008;" horiz-adv-x="230" />
<glyph unicode="&#x2009;" horiz-adv-x="368" />
<glyph unicode="&#x200a;" horiz-adv-x="102" />
<glyph unicode="&#x2010;" horiz-adv-x="1153" d="M90 651v132h971v-132h-971z" />
<glyph unicode="&#x2011;" horiz-adv-x="1153" d="M90 651v132h971v-132h-971z" />
<glyph unicode="&#x2012;" horiz-adv-x="1153" d="M90 651v132h971v-132h-971z" />
<glyph unicode="&#x2013;" horiz-adv-x="1108" />
<glyph unicode="&#x2014;" horiz-adv-x="2048" />
<glyph unicode="&#x2018;" horiz-adv-x="290" d="M80 1080v374h61l71 -374h-132z" />
<glyph unicode="&#x2019;" horiz-adv-x="290" d="M80 1454h132v-374h-61z" />
<glyph unicode="&#x201a;" horiz-adv-x="557" />
<glyph unicode="&#x201c;" horiz-adv-x="474" d="M80 1080v374h61l71 -374h-132zM254 1080v374h61l71 -374h-132z" />
<glyph unicode="&#x201d;" horiz-adv-x="474" d="M80 1454h132v-374h-61zM254 1454h132v-374h-61z" />
<glyph unicode="&#x201e;" horiz-adv-x="910" />
<glyph unicode="&#x2022;" horiz-adv-x="297" d="M80 603v228h132v-228h-132z" />
<glyph unicode="&#x2026;" horiz-adv-x="2048" />
<glyph unicode="&#x202f;" horiz-adv-x="368" />
<glyph unicode="&#x2039;" horiz-adv-x="631" />
<glyph unicode="&#x203a;" horiz-adv-x="631" />
<glyph unicode="&#x205f;" horiz-adv-x="460" />
<glyph unicode="&#x20ac;" horiz-adv-x="1014" />
<glyph unicode="&#x2122;" horiz-adv-x="1497" />
<glyph unicode="&#xe000;" horiz-adv-x="975" d="M0 0v975h975v-975h-975z" />
</font>
</defs>
</svg>
