<?xml version="1.0" standalone="no"?>
<!DOCTYPE svg PUBLIC "-//W3C//DTD SVG 1.1//EN" "http://www.w3.org/Graphics/SVG/1.1/DTD/svg11.dtd" >
<svg xmlns="http://www.w3.org/2000/svg">
<metadata></metadata>
<defs>
<font id="natura_playbold" horiz-adv-x="829" >
<font-face units-per-em="2048" ascent="1536" descent="-512" />
<missing-glyph horiz-adv-x="772" />
<glyph horiz-adv-x="2048" />
<glyph horiz-adv-x="2048" />
<glyph unicode="&#xd;" horiz-adv-x="1024" />
<glyph unicode=" "  horiz-adv-x="772" />
<glyph unicode="&#x09;" horiz-adv-x="772" />
<glyph unicode="&#xa0;" horiz-adv-x="772" />
<glyph unicode="!" horiz-adv-x="280" d="M-10 102q0 41 28.5 69t67.5 28q41 0 70.5 -29t29.5 -70t-28.5 -70.5t-71.5 -29.5q-41 0 -68.5 30.5t-27.5 71.5zM8 1423h80q33 0 56.5 -18.5t23.5 -52.5l-25 -1071h-57q-20 0 -35.5 15t-17.5 44z" />
<glyph unicode="&#x22;" horiz-adv-x="368" d="M-29 1386q0 43 30 75t65 50q10 6 20 0t16.5 -17t5 -22.5t-9.5 -17.5h2q-12 -10 -25.5 -22.5t-19.5 -24.5q23 -2 36 -18.5t13 -36.5q0 -25 -18 -40.5t-41 -15.5q-35 0 -54.5 29t-19.5 61zM160 1386q0 -23 12 -44t35 -21q14 0 25.5 8t11.5 23q0 12 -7.5 21t-19.5 9 q-4 0 -13 -1t-16 -1q0 35 19.5 58.5t38.5 36.5h2q18 10 16 19t-24 -1q-29 -16 -54.5 -43t-25.5 -64z" />
<glyph unicode="%" horiz-adv-x="913" d="M-14 752q0 41 15 79.5t43 68.5t65.5 48.5t80.5 18.5t80 -17.5t64.5 -47.5t43 -67.5t15.5 -80.5t-15.5 -81t-43 -68t-64.5 -46t-80 -16t-79.5 16t-64.5 45t-44 67t-16 81zM33 72l536 794l6 8v9q-4 8 -4 18t2 21q4 25 15 41v-2l47 69q25 -23 39 -49q10 -20 14 -28.5 t4 -11.5t-1 -4t1 -7q8 -31 -2 -62q-2 -29 -22 -57l-447 -659q-2 -4 -2 -7q-4 -12 -4 -16q14 -35 -10 -72l-47 -67zM96 754q0 -41 27 -73t67 -32q41 0 68 32t27 73t-27 71.5t-68 30.5t-67.5 -30.5t-26.5 -71.5zM385 221q0 43 15.5 82t43 67.5t64.5 46t80 17.5t80 -17.5 t64.5 -46t43 -67.5t15.5 -82q0 -41 -15.5 -80t-43 -67.5t-64.5 -46t-80 -17.5t-80 17.5t-64.5 46t-43 67.5t-15.5 80zM496 221q0 -41 25.5 -70.5t66.5 -29.5t67.5 29.5t26.5 70.5t-26.5 73t-67.5 32t-66.5 -32t-25.5 -73z" />
<glyph unicode="'" horiz-adv-x="299" d="M-5 1277.5q7 14.5 19 29.5q20 12 41 32.5t29 42.5q-4 -2 -8 -2q-35 0 -53.5 20.5t-18.5 49.5q0 31 26.5 53.5t59.5 22.5q47 0 70.5 -40t23.5 -81q0 -61 -37.5 -106.5t-87.5 -67.5q-18 -10 -35.5 -6t-23.5 18q-12 20 -5 34.5z" />
<glyph unicode="," horiz-adv-x="301" d="M-22 -76.5q8 17.5 20 27.5q23 10 47.5 32.5t30.5 51.5h-10q-33 0 -53.5 21.5t-20.5 52.5q0 35 27.5 58t62.5 23q51 0 77.5 -44t26.5 -89q0 -63 -45 -112t-98 -74h2q-39 -23 -63 12q-12 23 -4 40.5z" />
<glyph unicode="-" d="M0 590v74h633q29 0 51.5 -20.5t22.5 -51.5v-72h-631q-29 0 -52.5 20.5t-23.5 49.5z" />
<glyph unicode="." horiz-adv-x="292" d="M-10 98q0 37 26.5 66t67.5 29q39 0 66.5 -29t27.5 -66q0 -41 -27.5 -69.5t-66.5 -28.5q-41 0 -67.5 28.5t-26.5 69.5z" />
<glyph unicode="0" horiz-adv-x="1265" d="M-6 715q0 123 37 249t109.5 228t178 166.5t244.5 64.5q137 0 243.5 -64.5t178.5 -166.5t110 -228t38 -249q0 -121 -38 -248t-110 -231.5t-178.5 -171t-243.5 -66.5q-139 0 -244.5 66.5t-178 170t-109.5 230.5t-37 250zM154 715q0 -90 24.5 -189.5t75.5 -183.5t128 -138 t181 -54t181 54t129.5 137t78 183.5t25.5 190.5q0 88 -25.5 186t-78 180t-129 136.5t-181.5 54.5q-104 0 -181 -53.5t-127 -135.5t-75.5 -180t-25.5 -188z" />
<glyph unicode="1" horiz-adv-x="575" d="M-12 1161q0 35 30 62l213 184v-2q25 20 54 20t51 -18t22 -59v-1350h-75q-31 0 -53.5 23.5t-22.5 54.5v1108l-90 -78v2q-20 -18 -43 -21.5t-42.5 6t-31.5 28t-12 40.5z" />
<glyph unicode="2" horiz-adv-x="1044" d="M-6 76q0 92 42 172t107.5 147.5t142 122.5t148.5 103l29 18q45 29 98 64.5t98.5 77.5t75 90.5t29.5 101.5q0 152 -85 225.5t-230 73.5q-88 0 -162 -31t-115 -108q-25 -41 -63 -41q-25 0 -43.5 10t-28.5 26.5t-11 37t9 38.5q63 117 173.5 169t240.5 52q217 0 341.5 -118.5 t124.5 -333.5q0 -82 -34.5 -148.5t-88 -123t-119 -103.5t-126.5 -86q-10 -6 -20.5 -13t-18.5 -14q-53 -33 -112.5 -73.5t-111 -83.5t-87 -88t-41.5 -88h710q31 0 53.5 -21.5t22.5 -54.5v-78h-870q-33 0 -55.5 23.5t-22.5 54.5z" />
<glyph unicode="3" horiz-adv-x="1148" d="M-8 430q0 39 8 74h74q35 0 59.5 -23.5t24.5 -60.5q0 -61 32.5 -111.5t84 -85.5t113 -54t118.5 -19q59 0 121.5 19t115 55t85 85t32.5 111q0 63 -32.5 113.5t-83 84t-113 52t-119.5 18.5q-31 0 -55.5 22.5t-24.5 57.5q0 33 22.5 54.5t55.5 21.5q47 0 96 15t90 43t68 69 t27 90q0 47 -26 87t-67 67.5t-91 43t-97 15.5q-86 0 -158.5 -33t-113.5 -111q-25 -41 -68 -40q-33 0 -54.5 24.5t-21.5 54.5q0 8 2 18.5t8 18.5v-2q59 115 169 168t237 53q78 0 155.5 -24.5t139 -70.5t100.5 -114.5t39 -154.5t-46 -163t-126 -122l33 -16q45 -25 85 -59.5 t68.5 -78.5t45 -94.5t16.5 -103.5q0 -102 -46 -181t-120 -133.5t-166 -83t-182 -28.5q-104 0 -197.5 34t-164 92t-111.5 137t-41 169zM758 768q2 0 3 1t3 1q-2 0 -3 -1t-3 -1z" />
<glyph unicode="4" horiz-adv-x="1198" d="M-10 428q0 16 7 30.5t15 24.5l725 914q25 27 62 26q29 0 52 -19.5t23 -55.5v-834q0 -14 15 -14h104q29 0 53.5 -20.5t24.5 -53.5v-78h-182q-14 0 -15 -14v-260q0 -33 -22.5 -55.5t-52.5 -22.5h-76v338q0 14 -14 14h-643q-31 0 -53.5 23.5t-22.5 56.5zM221 502h488 q14 0 14 14v608q0 6 -10 -4h2l-490 -616q0 -2 -4 -2z" />
<glyph unicode="5" horiz-adv-x="1112" d="M-12 295l12 10q14 12 40 31.5t50 19.5q39 0 68 -37q47 -80 134 -123.5t179 -43.5q68 0 132.5 22.5t114.5 63.5t81.5 98t31.5 129q0 70 -30.5 127t-81.5 99t-115.5 64.5t-132.5 22.5q-66 0 -126 -22.5t-114 -61.5q-20 -14 -40.5 -13t-38 13.5t-29.5 30.5t-12 41l79 594 q4 29 26 47t50 18h557q31 0 53.5 -21.5t22.5 -53.5q0 -31 -22.5 -53.5t-53.5 -22.5h-485l-6 -6l-49 -377h6l16 4h-4q41 12 82 23.5t88 11.5q98 0 191.5 -34t164 -95.5t113.5 -147.5t43 -190q0 -106 -42 -192.5t-111.5 -145.5t-163 -92t-193.5 -33q-166 -2 -286.5 80 t-198.5 215z" />
<glyph unicode="6" horiz-adv-x="1140" d="M-8 690q0 82 10 170t35.5 172t65.5 161t100.5 134t142.5 91t189 34q111 0 197.5 -26.5t164.5 -88.5h-2q27 -16 33 -44.5t-10 -55.5q-16 -29 -50 -40t-63 11h2q-63 43 -126 65.5t-142 22.5q-88 0 -152.5 -39.5t-110 -107.5t-74 -156t-44.5 -184v-10l28 26q45 49 95.5 75 t95.5 38t81.5 14t59.5 2q96 0 185.5 -30.5t158 -91t109.5 -149.5t41 -206q0 -98 -42 -185t-112 -151.5t-160 -102.5t-186 -38q-147 0 -246.5 64.5t-161 165t-87 223t-25.5 237.5zM182 479q0 -68 28 -127t74 -102t106 -68.5t126 -25.5t125 25.5t105.5 68.5t74 102.5 t27.5 126.5q0 68 -27.5 126.5t-74 102.5t-105.5 68.5t-125 24.5t-126 -24.5t-106 -68.5t-74 -102.5t-28 -126.5z" />
<glyph unicode="7" horiz-adv-x="1048" d="M-6 1343q0 37 21.5 58.5t54.5 21.5h774q27 0 51.5 -20.5t24.5 -52.5q0 -18 -15 -45l2 2l-526 -1311l-68 27q-31 14 -43 40.5t-2 55.5l463 1151l-4 2h-655q-33 0 -55.5 22.5t-22.5 48.5z" />
<glyph unicode="8" horiz-adv-x="1077" d="M-10 416q0 100 56 187t149 140l8 7q23 12 8 26q-61 59 -101 129t-40 170q0 84 33.5 151.5t90 113.5t128 71t145.5 25q76 0 148.5 -25t130 -71t92 -113.5t34.5 -151.5q0 -104 -34.5 -171.5t-108.5 -129.5v2q-10 -10 -5 -14l15 -12h-4q2 0 3 -1t3 -1l7 -3q98 -53 152 -139 t54 -190q0 -100 -42 -178t-110.5 -132.5t-156.5 -82t-178 -27.5t-176 27.5t-152.5 82t-107.5 132t-41 178.5zM160 412q0 -61 25.5 -110.5t67.5 -84.5t97.5 -53.5t116.5 -18.5q63 0 119.5 18.5t99.5 53.5t68.5 84t25.5 111q0 59 -25.5 109t-68.5 86t-99.5 55.5t-119.5 19.5 q-61 0 -116.5 -19.5t-97.5 -55.5t-67.5 -86t-25.5 -109zM223 1065q0 -49 21.5 -91t57.5 -72t79 -47t86 -17q45 0 90 17t79 47t55.5 72t21.5 91q0 51 -21.5 90t-55.5 66.5t-79 42t-90 14.5q-43 0 -86 -14.5t-79 -42t-57.5 -66.5t-21.5 -90z" />
<glyph unicode="9" horiz-adv-x="1130" d="M-6 965q0 96 42 182t111.5 150.5t158.5 102.5t183 38q147 0 247 -64.5t160 -164t86 -221.5t26 -236q0 -123 -25 -256.5t-86 -245t-165.5 -184t-264.5 -72.5q-109 0 -196 26.5t-165 85.5q-27 20 -27.5 49t11.5 56q18 29 48 38t61 -16h-2q63 -41 125.5 -63.5t142.5 -22.5 q84 0 147.5 37t109.5 99.5t75.5 147.5t42.5 183q2 6 -6.5 8.5t-12.5 0.5q-43 -47 -93 -75t-97 -41t-86 -16.5t-62 -3.5q-94 0 -182 31t-156.5 90.5t-109.5 149.5t-41 207zM156 963q0 -68 26.5 -126.5t72.5 -102.5t105 -68.5t125 -24.5t125.5 24.5t105.5 68.5t73.5 102.5 t27.5 126.5t-27.5 125t-73.5 100t-105.5 67.5t-125.5 24.5t-125 -24.5t-105 -67.5t-72.5 -100.5t-26.5 -124.5z" />
<glyph unicode=":" horiz-adv-x="280" d="M-12 326q0 45 27.5 79.5t74.5 34.5q55 0 85 -34.5t30 -79.5q0 -113 -115 -113q-47 0 -74.5 30t-27.5 83zM-12 897q0 47 27.5 81t74.5 34q55 0 85 -34t30 -81q0 -113 -115 -113q-47 0 -74.5 30t-27.5 83z" />
<glyph unicode="?" horiz-adv-x="831" d="M-10 1268q0 18 9 33.5t24 23.5h-3q59 49 139.5 73.5t153.5 24.5q78 0 150 -23.5t126 -69.5t87 -111.5t33 -149.5q0 -61 -14.5 -109.5t-39 -89.5t-60.5 -76.5t-79 -72.5v2q-61 -59 -102 -116.5t-47 -143.5l-13 -182h-59q-63 0 -64 63l-4 119q-4 115 52.5 200t134.5 156 q51 51 98 110.5t47 137.5q0 102 -71.5 159.5t-172.5 57.5q-57 0 -114.5 -19.5t-106.5 -54.5q-16 -12 -34.5 -12t-34 8t-25.5 24.5t-10 37.5zM201 96q0 41 26.5 71t67.5 30t69.5 -30t28.5 -71t-28.5 -68.5t-69.5 -27.5q-39 0 -66.5 28.5t-27.5 67.5z" />
<glyph unicode="A" horiz-adv-x="1343" d="M-6 0v76q0 63 53 78q18 4 23 16l448 1206q10 29 33.5 43.5t52.5 14.5t51.5 -14.5t34.5 -43.5l453 -1206q2 -12 14 -16q61 -16 62 -78v-76h-181l-141 383q0 4 -10 4h-488q2 41 19 76q14 29 42.5 52.5t82.5 23.5h295q4 0 4 4l-234 614q-6 4 -10 0q-94 -258 -193.5 -525 t-191.5 -526q-8 -20 -33.5 -38.5t-58.5 -34t-68 -24.5t-59 -9z" />
<glyph unicode="B" horiz-adv-x="1175" d="M-8 0v80q0 29 18.5 48t40.5 30q4 2 6 8t2 12v1092q0 4 -1 7t-1 5l-2 2q-49 29 -49 74v78l578 -2q82 0 155.5 -32t129 -86t87 -128t31.5 -158q0 -90 -41 -164.5t-100 -120.5q92 -51 148.5 -144t56.5 -200q0 -84 -31 -156.5t-85 -127t-126 -86t-152 -31.5h-665zM209 180 q0 -18 7 -21t26 -3h415q51 0 97.5 18.5t80 52t53 77.5t19.5 97q0 55 -19.5 101.5t-53 80t-79.5 52t-98 18.5h-364q2 41 18 74q14 29 43 52.5t84 23.5h176q104 0 162 60.5t58 166.5q0 53 -19.5 99.5t-53.5 80t-80 53t-97 19.5h-355q-16 0 -18 -9t-2 -20v-1073z" />
<glyph unicode="C" horiz-adv-x="1298" d="M-8 721q0 145 56 276t153.5 231.5t229.5 159t284 58.5q76 0 140.5 -13.5t119.5 -35t103 -50t93 -57.5q-6 -10 -28.5 -25.5t-53 -27.5t-64.5 -15t-60 13q-35 20 -63 31.5t-55.5 16.5t-58 6t-73.5 1q-117 0 -221.5 -45t-182.5 -121.5t-124 -181t-46 -221.5t46 -220.5 t124 -182t182.5 -123.5t221.5 -45q43 0 73.5 1t58 6t55.5 17t63 35q27 14 60.5 11t64 -15t53 -27.5t28.5 -25.5q-45 -29 -93 -57.5t-103 -50t-119.5 -35t-140.5 -13.5q-152 0 -284 58.5t-229.5 158.5t-153.5 231t-56 277z" />
<glyph unicode="D" horiz-adv-x="1312" d="M-6 -2v80q0 45 45 72q2 0 4 2q4 4 4 10v1110q0 4 -6 10l-4 4q-20 8 -31.5 28.5t-11.5 43.5v74l563 2q147 0 264 -59.5t198 -160t125 -229.5t44 -268t-44 -268.5t-125 -228.5t-197.5 -158.5t-264.5 -61.5l-274 -2q2 41 18 76q14 29 44 53.5t85 24.5q131 0 241.5 31.5 t191.5 99t126 175t45 259.5q0 106 -34.5 205.5t-97 176.5t-150.5 125t-195 56h-344q-12 0 -14 -9t-2 -18v-1255h-203z" />
<glyph unicode="E" horiz-adv-x="1169" d="M-8 0v76q0 47 45 69l4 5q4 4 4 12v1110q0 6 -4 10q-2 2 -2 4q-18 10 -32.5 30.5t-14.5 43.5v74h1016v-74q0 -35 -22.5 -57.5t-55.5 -22.5h-717q-10 0 -11 -9t-1 -18v-1073q0 -10 1 -18t11 -8h756q35 0 56.5 -21.5t21.5 -54.5v-78h-1055zM285 627q2 41 18 73 q14 29 44 52.5t85 23.5h459q0 -10 -2 -33.5t-14.5 -50t-40 -46t-76.5 -19.5h-473z" />
<glyph unicode="F" horiz-adv-x="1126" d="M-8 -4v76q0 18 14 38.5t33 30.5q6 6 6 15v1120q0 6 -4 10q-2 2 -2 4q-20 10 -33.5 30.5t-13.5 39.5v76h934q41 0 59.5 -22.5t18.5 -51.5t-19.5 -54.5t-58.5 -25.5h-711q-10 0 -12 -9t-2 -20v-1103q0 -31 -20.5 -60t-51.5 -49.5t-67.5 -32.5t-69.5 -12zM287 635 q2 39 18 70q14 27 43 49t84 22h467q0 -12 -2 -36.5t-14.5 -51t-40 -46t-78.5 -19.5h-465z" />
<glyph unicode="G" horiz-adv-x="1452" d="M-6 717q0 145 52 274t157 234q100 100 230 154.5t272 54.5q76 0 143 -14.5t131.5 -43t127 -69.5t128.5 -93q-10 -31 -39 -44t-59.5 -16t-55 0t-30.5 7q-72 61 -160 90t-186 29q-117 0 -219.5 -44t-178.5 -120t-119 -179t-43 -220t43 -220.5t119 -180t178.5 -120.5 t219.5 -44q127 0 226 38.5t177 128.5q4 4 8 10.5t4 16.5v205q0 10 -1 19.5t-11 9.5h-377v75q0 33 21.5 55.5t52.5 22.5h520v-76q0 -20 -14.5 -40.5t-32.5 -30.5q-8 0 -8 -13v-262q0 -29 -13 -49q-207 -264 -552 -264q-147 0 -276.5 57.5t-227 154.5t-152.5 228t-55 279z" />
<glyph unicode="H" horiz-adv-x="1339" d="M-6 -2v80q0 20 15.5 38.5t31.5 28.5q6 6 6 15v1112q0 6 -4 10l-4 4q-23 10 -33 29.5t-10 42.5v63l10 13q31 0 64.5 -12.5t62.5 -33t48.5 -48t19.5 -58.5v-1284h-207zM285 623q2 41 18 75q14 29 44 52.5t85 23.5h549q29 0 29 29v631h204v-76q0 -23 -10 -41.5t-33 -28.5 l-2 -2q-2 0 -4 -2t-2 -12v-1112q0 -8 2 -10l4 -5q18 -10 31.5 -30.5t13.5 -40.5v-76h-204v596q0 10 -8.5 19.5t-20.5 9.5h-696z" />
<glyph unicode="I" horiz-adv-x="364" d="M-10 1354v80q31 0 67.5 -12.5t67.5 -34t51.5 -49t20.5 -60.5v-1114q0 -12 2 -14t4 -3q45 -23 45 -67v-80h-205v1272q0 6 -4 10l-2 2q-23 10 -35 29.5t-12 40.5z" />
<glyph unicode="J" horiz-adv-x="993" d="M-14 252q18 16 41.5 23.5t48.5 7.5q33 0 60.5 -8.5t39.5 -22.5h-2q33 -35 57.5 -55.5t49 -32.5t55.5 -16.5t76 -4.5q63 0 110 25t79 66.5t48.5 99t16.5 123.5v823q0 33 20.5 60.5t51 48t66.5 33t66 12.5v-74q0 -23 -12 -43.5t-41 -32.5v-12l2 -813v-12q0 -85 -27 -163 q-28 -83 -82.5 -145.5t-131 -99.5t-168.5 -37h-16q-57 0 -106 12q-55 15 -100 41q-53 35 -100 81t-76 81z" />
<glyph unicode="K" horiz-adv-x="1284" d="M-8 1356v78q33 0 68.5 -13.5t64.5 -34t49.5 -46t22.5 -50.5l-2 -598q0 -6 8 -7t14 3q2 0 5 3t19.5 20.5t53.5 54.5t102.5 107.5t167 178t250.5 265.5q4 4 4 10l-4 12q-4 12 -4 27q0 18 8 31l33 33q4 4 9 10t9 10l11 10l18 -4q4 -6 18.5 -23.5t32 -39t36 -44t34.5 -40.5 l-811 -842q-8 -8 -8 -25v-438h-207v78q0 16 11 36.5t38 31.5l-2 -3l2 3q4 4 4 14l-4 1112q0 6 -2 8q-2 0 -2 2v4q-2 2 -2 4q-23 6 -34 25.5t-11 36.5zM471 627q14 10 33 18q16 8 33.5 14.5t40.5 6.5q27 0 54 -12.5t54 -45.5q31 -41 87 -112.5t112 -143.5q66 -82 137 -176 q2 -4 5 -5t5 -3t4 -2q12 4 25 4q31 0 49 -23l25 -34l28 -35q-6 -6 -28.5 -21.5t-49 -33t-52 -33t-40.5 -23.5z" />
<glyph unicode="L" horiz-adv-x="1062" d="M-8 0v76q0 20 15.5 39.5t33.5 29.5q6 6 6 15v1112q0 6 -4 10q-2 2 -2 4q-20 10 -34.5 29.5t-14.5 40.5v78q33 0 68.5 -12.5t66.5 -34t51.5 -49t20.5 -58.5v-1100q0 -4 2 -15t18 -11h645q31 0 53.5 -24t22.5 -52v-78h-948z" />
<glyph unicode="M" horiz-adv-x="1638" d="M-6 0v76q0 25 12 44t37 30q0 -2 2 0t4 16v161v190t1 204.5t1 205v189.5v160q0 6 -4 10q-2 2 -2 4q-18 10 -32.5 31.5t-14.5 40.5v72q18 0 47 -4.5t57.5 -12.5t52 -19.5t31.5 -23.5l650 -1147q0 -47 -22.5 -65.5t-51.5 -18.5q-25 0 -47.5 11.5t-32.5 31.5l-442 770v-2 q-6 8 -21.5 7.5t-17.5 -15.5v-946h-207zM799 428q0 18 5 37.5t19 42.5l246 424l289 502h149v-76q0 -23 -11 -42.5t-34 -29.5l-2 -2q-2 0 -4 -2t-2 -12l-6 -1106q0 -8 4 -12l4 -5q45 -20 45 -71v-76h-205l2 942q0 10 -13 14.5t-21 -2.5l-381 -651q-25 14 -43 35 q-16 16 -28.5 38.5t-12.5 51.5z" />
<glyph unicode="N" horiz-adv-x="1302" d="M-10 0v76q0 20 12 40.5t33 30.5q2 2 4 4.5t2 10.5v1112q0 6 -4 10q-2 2 -2 4q-20 10 -32.5 30.5t-12.5 41.5v76q20 0 50 -6.5t58.5 -15.5t52 -21.5t35.5 -24.5q164 -219 303 -399q57 -78 117 -154t109 -140.5t85 -111.5t50 -63q16 -20 22.5 -41t6.5 -39 q0 -27 -11.5 -50.5t-23.5 -41.5q-14 -23 -33 -39l-616 807q-2 0 -5 2l5 -1098h-205zM963 1436h208v-76q0 -20 -13 -41t-34 -31q-6 -6 -6 -14v-1112q0 -8 2 -10l4 -5q20 -10 33.5 -30.5t13.5 -40.5v-76h-204z" />
<glyph unicode="O" horiz-adv-x="1583" d="M-6 731q0 152 57.5 285t156.5 232.5t232 156.5t285 57t285 -57t232 -156.5t156.5 -232.5t57.5 -285t-57.5 -285t-156.5 -232t-232 -156.5t-285 -57.5t-285 57.5t-232 156.5t-156.5 232.5t-57.5 284.5zM150 731q0 -121 45 -225.5t123.5 -182t183 -122.5t223.5 -45 t224.5 45t183 122.5t122.5 182t45 225.5q0 119 -45 223.5t-122.5 183.5t-183 124t-224.5 45t-223.5 -45t-183 -124t-123.5 -183.5t-45 -223.5z" />
<glyph unicode="P" horiz-adv-x="1144" d="M-8 0v76q0 23 12 43t35 28l2 3q4 4 4 12v1110q0 8 -4 12l-2 2q-23 8 -35 28.5t-12 43.5v76h618q84 0 159 -33t131 -88.5t89 -130t33 -158.5q0 -82 -33 -155.5t-88 -130t-129 -89.5t-156 -33h-333q2 43 18 78q14 29 43 53.5t84 24.5h182q49 0 93.5 18.5t78 49t56 72.5 t28.5 89v23q0 53 -19.5 100t-54 82t-80.5 55.5t-102 20.5h-399q-14 0 -14 -18v-1110q0 -31 -19.5 -59.5t-50.5 -49t-66.5 -33t-68.5 -12.5z" />
<glyph unicode="Q" horiz-adv-x="1617" d="M-4 735q0 147 59.5 280.5t158.5 233t232.5 157.5t282.5 58q150 0 282 -59t232 -160.5t157.5 -234.5t57.5 -283q0 -111 -34.5 -215t-96.5 -195q-20 23 -35 45q-12 20 -22 47t-10 60q0 20 4 41.5t14 46.5l-2 -2q4 8 14 55t15 119q0 119 -45.5 224.5t-124 184.5t-185 125 t-227.5 48q-119 0 -222.5 -45t-181 -124t-122.5 -184.5t-47 -226.5q0 -119 49 -223.5t129 -183t182 -125.5t209 -47q98 0 175 22.5t148 73.5h-2q2 2 -2 6l-223 211q-35 39 -35 98q0 43 15.5 87t42.5 75l59 -55q16 -16 22.5 -37t-4.5 -43h3v-6q0 -8 6 -13l567 -516l-141 -151 l-54 49q-16 16 -24 41.5t8 44.5l-119 106q-96 -70 -205 -107q-103 -36 -220 -36h-13q-145 0 -277.5 59.5t-232.5 161t-158.5 234.5t-58.5 278z" />
<glyph unicode="R" horiz-adv-x="1220" d="M-8 0v51q0 4 1 10.5t1 16.5q0 41 51 74q4 8 4 10l2 1108q0 12 -4 16q-47 23 -47 70v78l616 -2q80 0 162 -35q72 -33 127.5 -89.5t89.5 -129.5q16 -37 24.5 -78t8.5 -82q-4 -72 -22 -129q-31 -86 -99.5 -158t-156.5 -96q-2 0 -5 -2q-4 -4 3 -8l229 -404q4 -6 10 -12t10 -6 h9q18 -1 36 -13q4 -2 13.5 -15t19.5 -29.5t19.5 -33t13.5 -24.5l-182 -92l-336 602q-2 4 -6 10t-15 6h-288q8 62 46 110q36 46 101 46h6h182h9q47 0 89 18q46 20 80.5 54.5t55 79.5t20.5 96q0 55 -20 104h2q-30 68 -94 113q-62 43 -135 43h-7h-399q-8 0 -9 -8t-1 -17 l-6 -1101q-4 -35 -24.5 -63t-50.5 -47t-65.5 -30.5t-68.5 -11.5z" />
<glyph unicode="S" horiz-adv-x="1038" d="M-49 160l20 35q16 29 32.5 50t47.5 21q29 0 60 -20q59 -37 137 -62.5t162 -27.5h19q60 0 113 11q62 13 110 39.5t77 66.5t29 94q0 55 -29 97t-79 75.5t-116.5 60.5t-138.5 51q-72 25 -145.5 61t-133.5 85q-58 49 -96 115q-36 63 -36 148v9q0 92 42 163t108 118 q67 46 150 70q76 22 156 22h13q129 -4 226 -47t185 -131q-23 -29 -46 -44.5t-44 -21.5q-23 -8 -47 -6q-53 45 -128 70.5t-142 27.5q-66 0 -123.5 -14t-101.5 -44t-70.5 -72t-26.5 -95t29 -94t77 -75t109.5 -59.5t126.5 -48.5q74 -27 151 -59.5t140 -80.5t103 -116 q38 -64 38 -156v-9q0 -100 -47 -170t-120 -113q-72 -42 -161 -62q-81 -18 -157 -18h-16q-86 0 -177.5 25.5t-162.5 64.5q-18 10 -39 22.5t-39 22.5q-8 4 -20.5 10.5t-18.5 10.5z" />
<glyph unicode="T" horiz-adv-x="1351" d="M-6 1358v76h1153q33 0 55.5 -22.5t22.5 -53.5v-78h-510q-29 0 -29 -27v-1097q0 -47 -35 -83t-80 -57q-18 -6 -39.5 -11t-50.5 -5v76q0 23 11.5 42t33.5 29l2 3q4 4 4 10v1093q0 27 -28 27h-434q-33 0 -54.5 23.5t-21.5 54.5z" />
<glyph unicode="U" horiz-adv-x="1277" d="M-8 1434h82q61 0 92 -44t31 -110v-772q0 -70 28.5 -134.5t76.5 -113.5t110.5 -77.5t130.5 -28.5h59q68 0 131.5 30.5t111.5 79.5t76.5 112.5t28.5 131.5v926h205v-74q0 -23 -14.5 -43.5t-32.5 -30.5q-6 -6 -6 -14v-764q0 -100 -41 -191.5t-110.5 -162t-160 -112.5 t-188.5 -42h-59q-98 0 -187.5 41t-159 110.5t-110.5 160.5t-41 192v768q0 6 -4 10q-2 2 -2 4q-10 6 -19.5 26.5t-15.5 44t-9 45t-3 32.5z" />
<glyph unicode="V" horiz-adv-x="1351" d="M-6 1358v78q27 -2 57.5 -8.5t60 -17.5t54 -28.5t41.5 -42.5l399 -1069v-2l2 2l441 1164h176v-76q0 -61 -62 -78q-12 -4 -20 -16l2 2l-481 -1241q-23 -23 -58 -23q-23 0 -45 16q-4 4 -12 19.5t-26.5 60.5t-51.5 128t-87 221.5t-131 338t-183 480.5q-6 10 -19 14 q-57 14 -57 78z" />
<glyph unicode="W" horiz-adv-x="2015" d="M-4 1350v73q23 0 54.5 -7t64 -20.5t58.5 -31.5t36 -37l336 -969q4 -4 12 -4t12 4l299 1016q8 23 26.5 39.5t43.5 16.5q43 0 70 -46l-371 -1329q-14 -51 -78 -55q-23 0 -40 14.5t-27 36.5l-418 1209q-2 6 -8.5 10t-10.5 6q-25 4 -42 24.5t-17 49.5zM969 1042q21 5 41 5 q15 0 30 -3q29 -6 57.5 -26.5t43.5 -69.5q10 -33 26.5 -85t35 -112.5t36.5 -124t34.5 -116.5t27 -92t14.5 -51q6 -6 18.5 -6.5t16.5 10.5l-2 -2q88 266 178 532t178 533h176v-76q0 -29 -15.5 -48.5t-43.5 -25.5q-10 -2 -19 -18l2 2l-407 -1213q-8 -20 -24.5 -35.5 t-41.5 -15.5q-29 0 -50 16.5t-30 38.5z" />
<glyph unicode="X" horiz-adv-x="1253" d="M-8 0v78q0 33 22.5 58.5t57.5 25.5q6 -2 11 2t13 10l-2 -4l365 522q2 2 2 17q0 4 -12.5 24.5t-44 68.5t-87 131t-143.5 212l-84 121q-6 10 -22 10q-35 0 -54.5 25.5t-19.5 54.5v80q23 0 55.5 -6.5t65 -17.5t60.5 -25.5t40 -30.5l813 -1186v2q13 -12 25 -12q29 0 52 -24.5 t23 -57.5v-80h-165l-392 569q-12 8 -20 -2v2l-393 -567h-166zM651 942q0 41 27 82q29 47 78 116.5t96 135.5q53 76 115 158h161v-78q0 -31 -18 -55.5t-53 -24.5q-14 0 -21 -12l-307 -441q-23 12 -39 31q-16 16 -27.5 37.5t-11.5 50.5z" />
<glyph unicode="Y" horiz-adv-x="1286" d="M-8 1352v80q18 0 50 -4.5t65.5 -13.5t63.5 -21.5t40 -28.5l446 -774v-512q0 -31 -23.5 -54.5t-51.5 -23.5q-31 0 -54.5 22.5t-23.5 55.5l-2 481q0 10 -4 23.5t-21 42.5l-387 639v-2l-9 9t-13 5q-35 0 -55.5 21.5t-20.5 54.5zM662 852q0 33 20 74q12 23 31.5 57.5t43 74.5 t50.5 84t51 85q59 98 129 207h174v-78q0 -35 -20.5 -56.5t-55.5 -21.5q-16 0 -18 -12l-324 -535q-23 12 -41 31q-16 16 -28 38.5t-12 51.5z" />
<glyph unicode="Z" horiz-adv-x="1316" d="M4 141q211 279 430 567.5t426 567.5q6 6 0 6l-717 -2q-55 0 -104 33t-49 94v82q12 0 34.5 -3t46 -10.5t42 -16.5t22.5 -21q0 -2 2 -2q2 -2 15 -2h821q41 0 71.5 -21.5t30.5 -64.5q0 -16 -6 -35t-14 -33l-963 -1280h-16q-29 0 -50 14q-20 16 -30 36q-9 19 -9 40 q0 27 17 51zM268 0q0 41 17 76q14 29 42.5 53.5t84.5 24.5h610q6 0 10 4l4 4q4 10 23.5 18t43 14.5t46 9.5t33.5 3v-207h-914z" />
<glyph unicode="_" d="M-8 55v58h659q23 0 40.5 -17.5t17.5 -40.5v-55h-660q-23 0 -40 17.5t-17 37.5z" />
<glyph unicode="a" horiz-adv-x="980" d="M-8 326q0 98 35.5 168.5t97 116.5t142.5 67.5t171 21.5q53 0 106.5 -10t100.5 -37l4 -2q2 -2 4 -2q8 -4 9 8q0 12 -1.5 33t-2.5 40.5t-2 32.5t-3 13q-12 31 -36.5 52.5t-56.5 35t-70.5 19.5t-77.5 6q-59 0 -110.5 -9.5t-106.5 -25.5q-16 -4 -27 -4q-14 0 -31.5 11 t-33 26.5t-29 33t-21.5 27.5q51 27 95.5 43.5t86 26.5t82.5 14t89 4q59 0 118.5 -10t110.5 -33.5t90 -60.5t61 -92q14 -33 17.5 -74t3.5 -82v-520q0 -10 2 -12t4 -2l-2 2q12 -4 20.5 -25t13.5 -45.5t7 -48t2 -33.5h-76q-47 0 -75.5 39t-38.5 88h-7h2q-25 -29 -60.5 -52.5 t-75.5 -41t-81 -26.5q-34 -7 -62 -7h-13q-72 0 -139.5 21.5t-120 62.5t-84 102.5t-31.5 139.5zM139 332q0 -47 20.5 -83t52.5 -58.5t74 -34t85 -11.5q51 0 102 17.5t93 59.5t69 108.5t27 165.5l1 4q0 -2 -4 2q-51 27 -113 42q-49 12 -92 12q-11 0 -22 -1q-55 0 -108.5 -12.5 t-94.5 -40t-65.5 -69.5t-24.5 -101z" />
<glyph unicode="b" horiz-adv-x="1114" d="M-6 0v74q0 23 12 40t31 25l-2 -2l4 4q4 4 4 11v1122q0 4 -4 8l-2 2q-18 10 -30.5 28.5t-12.5 39.5v73q31 0 65.5 -12t63.5 -31.5t48 -46t19 -57.5v-389q0 -6 5.5 -9t7.5 1q61 72 144 104.5t169 32.5q100 0 186 -40t148.5 -107.5t98.5 -157.5t36 -191q0 -104 -35 -198.5 t-96 -167t-147 -114.5t-191 -42q-84 0 -159.5 29.5t-141.5 95.5q-4 2 -7 5t-7 3q-10 0 -11 -10v-123h-196zM190 522q0 -68 23 -134t64.5 -120.5t101 -87.5t135.5 -33q74 0 134.5 33t101.5 86t63.5 120t22.5 136q0 70 -22.5 133.5t-64.5 112.5t-101.5 77.5t-133.5 28.5 t-133 -28.5t-102 -76.5t-66 -112.5t-23 -134.5z" />
<glyph unicode="c" horiz-adv-x="1032" d="M-8 520q0 109 42 204t113.5 166t167 111.5t203.5 40.5q117 -4 211 -45t180 -133l-20 -22q-16 -20 -38 -35.5t-44 -15.5q-33 0 -66 24q-49 41 -107.5 60.5t-115.5 19.5q-78 0 -147.5 -28.5t-121.5 -80t-82 -119t-30 -147.5t30 -147.5t82 -118.5t121.5 -80t147.5 -29 q57 0 115.5 19.5t107.5 58.5q18 16 32.5 21.5t31.5 5.5q25 0 44 -15.5t38 -33.5l22 -23q-86 -96 -180 -136t-211 -44q-109 0 -204 41t-166.5 111.5t-113.5 166t-42 203.5z" />
<glyph unicode="d" horiz-adv-x="1110" d="M-8 522q0 100 34.5 190.5t97 159t148.5 108.5t187 40q90 0 170 -40t145 -101v2q10 -6 10 6v393q0 29 19.5 55.5t48.5 46t62.5 31.5t64.5 12v-73q0 -20 -9 -38t-32 -28q-2 0 -4 -2t-2 -10v-1120q0 -12 2 -15q2 -2 4 -2q23 -8 32 -24.5t9 -38.5v-74h-195v121q0 10 -10 10 l-16 -6q-61 -63 -139 -94t-160 -31q-104 0 -190.5 42t-148 114.5t-95 167t-33.5 198.5zM137 522q0 -70 22.5 -137.5t65.5 -120.5t102.5 -86t133.5 -33q76 0 135 34t101 87t64.5 122t22.5 136q0 70 -22.5 134.5t-65.5 111.5t-102 75.5t-133 28.5t-133.5 -28.5t-101.5 -76.5 t-65.5 -112.5t-23.5 -134.5z" />
<glyph unicode="e" horiz-adv-x="1085" d="M-6 520q0 100 34.5 194.5t98 166t152 115.5t194.5 44q109 0 198 -43t153.5 -114.5t99 -165.5t34.5 -197q0 -31 -24.5 -52.5t-52.5 -21.5h-729q-6 0 -7 3q16 -57 45 -113.5t70 -99.5q40 -43 94 -69q46 -23 102 -23q8 0 17 1q100 0 170 27t117 72q25 25 55 24 q12 0 26.5 -11t27 -25.5t21.5 -30t13 -23.5q-86 -96 -191.5 -138t-238.5 -42q-106 0 -194.5 42t-152 114.5t-98 167t-34.5 198.5zM145 598q0 -6 11 -6h639q8 0 11 -5l1 -2q1 0 0 7q-12 57 -42 112.5t-73 96.5t-98 66.5t-121 25.5q-61 0 -116.5 -23.5t-99.5 -63.5t-73 -94 q-39 -72 -39 -114z" />
<glyph unicode="f" horiz-adv-x="622" d="M-8 0v72q0 23 12 40t31 27l2 2q4 4 4 13v956q0 68 16.5 128t53 107.5t94 75t137.5 27.5q18 0 48 -3t63.5 -10.5t67.5 -18.5t63 -25q-6 -16 -22.5 -37t-36 -39.5t-41 -30.5t-40.5 -8q-23 8 -52.5 16t-49.5 8q-86 0 -119 -47t-33 -143v-74h314v-73q0 -29 -17.5 -52.5 t-46.5 -23.5h-247q-2 0 -3 -2v-738q0 -31 -19 -57.5t-48 -46.5t-64.5 -31.5t-66.5 -11.5z" />
<glyph unicode="g" horiz-adv-x="1077" d="M-4 559q0 94 33.5 179t95 148.5t144.5 100.5t182 37q51 0 95 -13.5t81 -33t65.5 -42t46.5 -40.5l13 -8h6q0 10 4 22q16 49 74.5 82t111.5 33v-66q0 -23 -9 -41t-32 -26q-6 -6 -6 -12v-686q0 -127 -39 -212t-101.5 -137.5t-143 -74t-164.5 -21.5q-68 0 -128.5 15.5 t-111.5 36t-90 43t-60 34.5l-28 17q8 10 20.5 24t26.5 27.5t29.5 22.5t29.5 9q6 0 14.5 -1t20.5 -7q41 -25 86 -43q39 -16 88 -29.5t103 -13.5q156 0 230.5 85t74.5 225v59q-6 0 -17 -10q-37 -37 -105.5 -75t-186.5 -38q-96 0 -179.5 33t-143.5 90t-95 136t-35 171zM145 561 q0 -66 22.5 -120t64.5 -93t99.5 -61.5t127.5 -22.5q68 0 125 21.5t98 61.5t64.5 96.5t23.5 123.5q0 63 -22.5 120.5t-63.5 103t-98.5 72t-124.5 26.5q-70 0 -127.5 -26.5t-99 -70.5t-65.5 -103.5t-24 -127.5z" />
<glyph unicode="h" horiz-adv-x="1087" d="M-6 0v72q0 29 13 43t32 24h-2q6 0 6 15v1116q0 6 -4 10q-2 2 -2 4q-43 23 -43 68v71q31 0 65.5 -11t64.5 -31.5t49.5 -46t19.5 -56.5v-373q0 -6 10 0t18 15q39 35 99.5 66.5t150.5 31.5q225 0 328.5 -121t103.5 -342v-401q0 -10 2 -13q2 -2 4 -2l-2 2q25 -10 36 -28.5 t11 -40.5v-72h-196v569q0 66 -16.5 122.5t-52.5 96t-90 62t-128 22.5q-53 0 -103.5 -17t-89 -51t-62 -83t-23.5 -111v-610h-199z" />
<glyph unicode="i" horiz-adv-x="352" d="M-10 944v74q31 0 64.5 -12.5t62 -32t48 -46t19.5 -55.5v-718q0 -8 2 -11q0 -2 2 -4q23 -10 36.5 -27.5t13.5 -37.5v-74h-199v864q0 4 -1 6t-1 4l-2 3q-23 10 -34 28.5t-11 38.5zM-4 1323q0 43 28.5 71.5t71.5 28.5q39 0 70 -28.5t31 -71.5q0 -39 -30 -69.5t-71 -30.5 q-43 0 -71.5 30.5t-28.5 69.5z" />
<glyph unicode="j" horiz-adv-x="364" d="M-160 -281q12 45 28.5 73t34 43t36 21.5t36.5 12.5q31 8 56.5 26.5t29.5 86.5v903q0 29 18.5 54.5t46.5 43.5t60.5 29.5t61.5 11.5v-70q0 -23 -10.5 -40t-32.5 -23l2 2l-4 -4q-4 -4 -4 -10v-902q0 -123 -89.5 -190.5t-269.5 -67.5zM43 1321q0 37 28.5 65.5t69.5 28.5 t70 -27.5t29 -64.5q0 -43 -29 -72.5t-70 -29.5t-69.5 29.5t-28.5 70.5z" />
<glyph unicode="k" horiz-adv-x="849" d="M-10 -2v74q0 23 12 40t33 25l-2 -2q6 0 6 17l2 1118q0 6 -4 10l-2 2q-23 10 -33 28.5t-10 39.5v73q31 0 65.5 -12t63.5 -31.5t47 -46t18 -55.5l-4 -766q0 -18 6 -12l-4 -6l12 12q11 12 51 54t119.5 123t217.5 222h-2q8 10 4 25v-2q-4 12 -4 26q0 27 16 43l57 56 q6 -6 18.5 -23.5t25 -36t23.5 -35t15 -24.5q9 -20 9 -36q0 -18 -9 -32q-18 -28 -41 -51l-6 -4l-287 -291l9 -8l270 -350q6 -12 14 -12q4 0 9 2q2 0 5 1t7 1q18 0 28.5 -5.5t16.5 -13.5l18 -24v2l37 -45q-6 -6 -24.5 -17.5t-39 -24t-39 -20.5t-26.5 -8q-31 0 -63.5 17.5 t-53.5 45.5l-270 353l-4 -3q-4 -3 -15.5 -14.5l-32 -32t-56.5 -55.5q-6 -6 -7 -14v-297h-196z" />
<glyph unicode="l" horiz-adv-x="333" d="M-12 1350v73q31 0 64.5 -12t62 -31.5t48 -46t19.5 -55.5v-1124q0 -8 2 -11l4 -4q16 -10 30.5 -27.5t14.5 -37.5v-74h-196v1270q0 6 -4 10q-2 2 -2 4q-16 10 -29.5 27.5t-13.5 38.5z" />
<glyph unicode="m" horiz-adv-x="1650" d="M-4 0v74q0 51 45 67l2 2q4 4 4 11v716q0 6 -4 11l-2 2q-45 20 -45 67v74q27 0 57.5 -9t58 -25.5t49 -39t29.5 -49.5l3 4q49 63 118.5 91t141.5 28q43 0 89 -8t89 -26.5t80 -48.5t61 -73l4 2q53 78 136 116t175 38q70 0 137.5 -23.5t121 -70.5t85 -119t31.5 -168v-489 q0 -10 2 -13q2 -2 4 -2l-2 2q23 -8 34 -26.5t11 -40.5v-74h-194v645q0 61 -21.5 105.5t-55.5 72t-76 41t-81 13.5q-117 0 -185.5 -63.5t-68.5 -182.5v-477q0 -8 2 -11q0 -2 3 -2q16 -10 30.5 -29.5t14.5 -37.5v-74h-199v645q0 66 -21.5 110t-54.5 71.5t-75 39t-80 11.5 q-115 0 -185.5 -69t-70.5 -181v-627h-197z" />
<glyph unicode="n" horiz-adv-x="1087" d="M-6 0v74q0 20 15.5 39.5t31.5 29.5q0 2 1 6.5t1 8.5v727q-23 10 -36 30.5t-13 40.5v78q25 0 53.5 -8t55 -21.5t48 -33t33.5 -41.5l4 -10q8 -20 15 -11q43 43 106.5 84t165.5 41q223 0 333 -123t110 -348v-405q0 -10 2 -13q2 -2 4 -2q23 -8 34 -27.5t11 -41.5v-74h-197 v578q0 68 -16.5 124t-51 97t-91 63.5t-138.5 22.5q-61 0 -112.5 -20.5t-89 -57.5t-59 -87t-21.5 -112v-608h-199z" />
<glyph unicode="o" horiz-adv-x="1165" d="M-6 522q0 106 41 200.5t111.5 165t165 111.5t202.5 41q106 0 201.5 -41t167 -111.5t112.5 -164.5t41 -201q0 -109 -41 -203t-112.5 -165.5t-166.5 -112.5t-202 -41q-109 0 -203 41t-164.5 112.5t-111.5 165.5t-41 203zM137 522q0 -78 30 -146.5t81 -119.5t119.5 -80 t146.5 -29t146.5 29t119.5 80t81 119.5t30 146.5q0 76 -30 143.5t-81 119t-119.5 80t-146.5 28.5t-146.5 -28.5t-119.5 -80t-81 -119t-30 -143.5z" />
<glyph unicode="p" horiz-adv-x="1116" d="M-6 -252q0 23 12 38t31 26h-2q6 0 6 18v1042q0 4 -4 9q-2 2 -2 4q-41 20 -41 65v74q29 0 63.5 -11.5t64.5 -31.5t50.5 -46t22.5 -56v-23q55 80 142 125q83 43 175 43h8q104 0 190.5 -43t148 -114.5t95 -167t33.5 -201.5q0 -98 -34.5 -188.5t-97 -159t-148.5 -109.5 t-187 -41q-94 0 -178 34t-141 107q2 0 -4 6q-2 2 -2 5v-476h-201v72zM195 496q0 -70 22.5 -133.5t63.5 -110.5t101 -76t136 -29q74 0 133.5 29t101.5 77t65.5 111.5t23.5 133.5t-22.5 137t-64.5 121.5t-102.5 87.5t-134.5 33q-76 0 -136 -34t-101 -87.5t-63.5 -122 t-22.5 -137.5z" />
<glyph unicode="q" horiz-adv-x="1118" d="M-6 502q0 104 33.5 199.5t96 168t149.5 114.5t192 42q82 0 166 -38t141 -105q6 -4 12.5 -4t10.5 16q6 27 26.5 51.5t48 42t59.5 27.5t60 10v-74q0 -20 -11 -39.5t-34 -27.5q-2 0 -2 -2q-2 -2 -2 -11v-1030h-147v312l-2 -2q-59 -76 -148.5 -114t-177.5 -38 q-102 0 -188.5 40t-150 109.5t-98 159.5t-34.5 193zM141 502q0 -72 22.5 -136.5t65.5 -113.5t102.5 -78t133.5 -29q76 0 136.5 29t103.5 77t65.5 111.5t22.5 135.5q0 70 -22.5 138.5t-64.5 122.5t-103.5 88t-137.5 34t-135.5 -34t-101.5 -87t-64.5 -121t-22.5 -137z M793 -133h147v-39q0 -8 2 -10q0 -2 2 -2q23 -10 34 -28.5t11 -39.5v-74h-196v193z" />
<glyph unicode="r" horiz-adv-x="718" d="M-8 -2v72q0 23 15.5 43t39.5 32h-4q-2 0 -2 7v718q0 4 -1 5.5t-1 3.5l-2 2q-45 20 -45 67v76q18 0 44.5 -6t52.5 -15.5t48.5 -21.5t34.5 -27q10 -12 17.5 -8t15.5 12q37 37 90 56.5t106 19.5q55 0 124 -19.5t141 -58.5q-4 -18 -18.5 -37.5t-35 -35t-42 -23.5t-40.5 -2 q-63 23 -129 23q-39 0 -76.5 -10.5t-67.5 -30t-48.5 -51t-18.5 -74.5v-717h-198z" />
<glyph unicode="s" horiz-adv-x="833" d="M-14 90l55 82l49 74l143 -84q20 -12 61.5 -21.5t76.5 -9.5q43 0 83 9.5t70.5 26.5t49 39.5t18.5 51.5q0 31 -18.5 55.5t-47 44t-64.5 35t-73 31.5l-22 8q-49 18 -107.5 45t-109 66t-83 90t-32.5 121q0 61 28.5 112.5t77.5 90t112.5 60t135.5 21.5q80 0 172 -35.5 t154 -117.5q-12 -16 -27.5 -32.5t-33 -28t-38 -12.5t-41.5 13q-41 31 -90 48.5t-96 17.5q-43 0 -80 -11.5t-65.5 -30t-45 -44t-16.5 -53.5q0 -31 22.5 -56.5t55.5 -47t71.5 -38t71.5 -30.5q55 -23 116 -51.5t110 -67.5t80.5 -89t31.5 -114q0 -76 -36.5 -128t-93 -85 t-123 -47t-123.5 -14q-59 0 -123 17t-121 42q-16 -10 -40 -6t-44 16l-21 15h2z" />
<glyph unicode="t" horiz-adv-x="636" d="M-12 1210v72q31 0 64.5 -11t61 -30.5t46 -45.5t18.5 -52v-142h266v-75q0 -31 -19 -50.5t-48 -19.5h-199v-489q0 -43 5 -83t20.5 -71t44 -49.5t76.5 -18.5q51 1 104 17q6 2 12 1q26 0 56 -26q36 -33 53 -78l-29 -12q-41 -17 -89 -33q-39 -13 -84 -13q-11 0 -23 1 q-156 0 -221.5 95.5t-65.5 269.5v766q0 2 -1 3t-1 3l-2 2q-20 10 -32.5 28.5t-12.5 40.5z" />
<glyph unicode="u" horiz-adv-x="1095" d="M-6 950v74q31 0 65.5 -12.5t64.5 -31.5t49.5 -46t19.5 -57v-426q0 -160 73.5 -233t233.5 -73q57 0 107 18.5t87 52.5t57.5 80t20.5 103v625h197v-74q0 -20 -11.5 -38.5t-31.5 -26.5v-2q-2 0 -4 -2t-2 -13v-714q0 -12 2 -15q2 -2 4 -2q20 -8 31.5 -26.5t11.5 -38.5v-74 h-185l13 12l-5 14q-4 13 -8 31.5t-8 38t-4 31.5q0 2 -2 0t-4 -6q-25 -29 -59.5 -51.5t-72.5 -38t-75 -23.5t-65 -8q-221 0 -336 114.5t-115 338.5v417q0 4 -1 6.5t-1 4.5q-2 2 -2 4q-18 10 -31.5 29.5t-13.5 37.5z" />
<glyph unicode="v" horiz-adv-x="1036" d="M-6 948v76q20 0 52 -7t63.5 -19.5t57.5 -29t32 -34.5l243 -668q4 -4 9.5 -4t7.5 4l278 758h172v-76q0 -29 -15 -48t-44 -26q-14 -4 -16 -14l-308 -805q-10 -23 -28.5 -39t-48.5 -16q-27 0 -44.5 16.5t-27.5 38.5l-307 805q-2 4 -7.5 8t-9.5 6q-59 16 -59 74z" />
<glyph unicode="w" horiz-adv-x="1624" d="M-4 948v76q23 0 54.5 -7t63 -20.5t57.5 -30t34 -34.5l225 -672q2 -4 6 -4t6 4l232 715q6 20 27.5 33.5t46.5 13.5q18 0 37.5 -15.5t29.5 -31.5l223 -715q2 -4 7.5 -4t7.5 4l260 764h174v-76q0 -27 -15.5 -45t-39.5 -24q-16 -4 -19 -15l-301 -815q-18 -49 -68 -49 q-23 0 -42 12.5t-29 36.5l-223 690q-2 2 -6.5 3t-6.5 -3l-227 -690v2q-12 -51 -72 -51q-47 0 -67 49l-297 815q-2 10 -21 15q-57 14 -57 69z" />
<glyph unicode="x" horiz-adv-x="983" d="M-16 946v78q20 0 51 -7t62.5 -17.5t57 -24.5t35.5 -29v2l220 -291q4 -4 10 -4t8 4l277 367h151v-78q0 -29 -20.5 -50.5t-51.5 -21.5q-6 0 -11 -4t-7 -8l-258 -356v2q-2 -2 0 -4v2l252 -340q12 -12 18 -12q33 0 52.5 -24t19.5 -54v-76h-152l-272 365q-6 6 -10 0l-275 -365 h-149v76q0 31 18.5 54.5t50.5 23.5q14 0 25 22l240 322q-2 -2 2 4t4 8q-61 88 -128 177t-128 177l-6 4q-6 6 -15 6q-31 0 -51 22t-20 50z" />
<glyph unicode="y" horiz-adv-x="1073" d="M-16 -233q25 53 62.5 77.5t59.5 24.5q16 0 32 -4t30 -8q16 -4 30.5 -8.5t28.5 -4.5q20 0 36 4.5t31 18.5t30.5 37.5t37.5 64.5l-2 -2l2 4q8 16 11.5 28.5t3.5 33.5q0 2 -1 8t-10.5 30.5t-28 76t-53 142.5t-88 229t-130.5 341q-2 10 -7.5 12t-11.5 5q-23 6 -38 24.5 t-15 46.5v76q20 0 51 -7t61.5 -18.5t55 -27t33.5 -33.5l264 -717q6 -6 12 0l307 803h168v-74q0 -29 -15.5 -47t-39.5 -26q-10 0 -14.5 -4.5t-8.5 -10.5l2 2l-325 -839l-13 -25l3 2q-27 -68 -67 -144.5t-106 -121.5q-29 -23 -63.5 -32t-67.5 -9q-59 0 -112 19.5t-92 35.5v-2z " />
<glyph unicode="z" horiz-adv-x="964" d="M-6 1004v77q10 0 31.5 -3t44 -9t42 -15.5t23.5 -19.5q4 -4 15 -4h548q29 0 50.5 -13t32 -34.5t9 -46.5t-19.5 -45l-555 -744q0 -4 6 -4l461 4q10 0 12 3q2 2 2 4q4 12 22.5 20t42 14.5t46 9.5t33.5 3v-201h-748q-39 0 -61.5 24.5t-22.5 55.5q0 6 3 13t20.5 33t53.5 75 t100.5 136t164 220t244.5 326q0 4 -6 4l-447 -4q-59 0 -103 30.5t-44 90.5z" />
<glyph unicode="&#xad;" d="M0 590v74h633q29 0 51.5 -20.5t22.5 -51.5v-72h-631q-29 0 -52.5 20.5t-23.5 49.5z" />
<glyph unicode="&#x2000;" horiz-adv-x="763" />
<glyph unicode="&#x2001;" horiz-adv-x="1526" />
<glyph unicode="&#x2002;" horiz-adv-x="763" />
<glyph unicode="&#x2003;" horiz-adv-x="1526" />
<glyph unicode="&#x2004;" horiz-adv-x="508" />
<glyph unicode="&#x2005;" horiz-adv-x="381" />
<glyph unicode="&#x2006;" horiz-adv-x="254" />
<glyph unicode="&#x2007;" horiz-adv-x="254" />
<glyph unicode="&#x2008;" horiz-adv-x="190" />
<glyph unicode="&#x2009;" horiz-adv-x="305" />
<glyph unicode="&#x200a;" horiz-adv-x="84" />
<glyph unicode="&#x2010;" d="M0 590v74h633q29 0 51.5 -20.5t22.5 -51.5v-72h-631q-29 0 -52.5 20.5t-23.5 49.5z" />
<glyph unicode="&#x2011;" d="M0 590v74h633q29 0 51.5 -20.5t22.5 -51.5v-72h-631q-29 0 -52.5 20.5t-23.5 49.5z" />
<glyph unicode="&#x2012;" d="M0 590v74h633q29 0 51.5 -20.5t22.5 -51.5v-72h-631q-29 0 -52.5 20.5t-23.5 49.5z" />
<glyph unicode="&#x2013;" horiz-adv-x="1146" d="M0 590v74h917q42 0 74.5 -20.5t32.5 -51.5v-72h-914q-42 0 -76 20.5t-34 49.5z" />
<glyph unicode="&#x2014;" horiz-adv-x="2170" d="M0 590v74h1834q84 0 149 -20.5t65 -51.5v-72h-1828q-84 0 -152 20.5t-68 49.5z" />
<glyph unicode="&#x201a;" horiz-adv-x="1705" />
<glyph unicode="&#x202f;" horiz-adv-x="305" />
<glyph unicode="&#x205f;" horiz-adv-x="381" />
<glyph unicode="&#xe000;" horiz-adv-x="1024" d="M0 0v1024h1024v-1024h-1024z" />
</font>
</defs>
</svg>
